<svg width="390" height="316" viewBox="0 0 390 316" fill="none" xmlns="http://www.w3.org/2000/svg">
<g filter="url(#filter0_d_12354_544)">
<rect x="20" y="10" width="350" height="276" rx="8" fill="white"/>
<path fill-rule="evenodd" clip-rule="evenodd" d="M136.104 54.227L133.925 50.573L130.058 52.4L127.879 48.7351L124.011 50.573L121.843 46.8973L117.976 48.7351L115.797 45.0703L111.93 46.9081L109.762 43.2324L105.883 45.0703L97.6798 71.5784L107.648 74.6054C108.024 73.4106 108.817 72.3885 109.886 71.7238C110.955 71.0591 112.228 70.7957 113.475 70.9811C114.722 71.1665 115.862 71.7885 116.687 72.7347C117.513 73.681 117.97 74.889 117.976 76.1405V76.2486C117.998 76.7243 117.943 77.2 117.802 77.6757L127.933 80.7567L136.104 54.227Z" fill="#D61920"/>
<path fill-rule="evenodd" clip-rule="evenodd" d="M106.232 69.3946C105.98 69.3532 105.751 69.2236 105.587 69.0292C105.423 68.8348 105.335 68.5885 105.339 68.3351V55.3621C105.337 55.2198 105.364 55.0785 105.419 54.9467C105.473 54.8149 105.553 54.6951 105.654 54.5945C105.756 54.4938 105.877 54.4142 106.009 54.3604C106.142 54.3066 106.285 54.2796 106.428 54.281H115.873C116.43 54.2796 116.981 54.387 117.496 54.597C118.011 54.8071 118.479 55.1156 118.873 55.5051C119.268 55.8946 119.581 56.3574 119.795 56.8671C120.01 57.3768 120.121 57.9234 120.122 58.4756V68.3351C120.122 68.4943 120.086 68.6515 120.018 68.7954C119.949 68.9394 119.849 69.0665 119.725 69.1677C119.601 69.2689 119.457 69.3417 119.301 69.3809C119.146 69.4202 118.983 69.4248 118.826 69.3946C118.576 69.3509 118.35 69.2203 118.188 69.0261C118.026 68.8319 117.939 68.587 117.943 68.3351V58.4865C117.943 57.9417 117.725 57.4192 117.337 57.034C116.949 56.6488 116.422 56.4324 115.873 56.4324H113.814V68.3243C113.815 68.4691 113.787 68.6127 113.731 68.7464C113.674 68.8801 113.592 69.0013 113.487 69.1027C113.363 69.2247 113.211 69.3151 113.044 69.3659C112.877 69.4168 112.7 69.4266 112.529 69.3946C112.277 69.3532 112.048 69.2236 111.884 69.0292C111.72 68.8348 111.632 68.5885 111.635 68.3351V56.4324H107.517V68.3243C107.518 68.4833 107.484 68.6406 107.417 68.785C107.35 68.9293 107.251 69.0571 107.128 69.1593C107.005 69.2616 106.861 69.3356 106.707 69.3763C106.552 69.417 106.39 69.4232 106.232 69.3946ZM121.941 75.0486C121.688 75.007 121.457 74.8758 121.293 74.6791C121.129 74.4825 121.042 74.2336 121.048 73.9783C121.049 73.6947 121.163 73.4229 121.364 73.2216C121.565 73.0179 121.839 72.9013 122.127 72.8973C123.053 72.8973 123.848 72.3135 124.109 71.4378L125.232 67.7297L121.56 55.5459C121.516 55.4096 121.5 55.2661 121.513 55.1236C121.525 54.9811 121.566 54.8425 121.633 54.7158C121.7 54.5891 121.791 54.4769 121.902 54.3855C122.013 54.2942 122.141 54.2256 122.279 54.1837C122.554 54.1083 122.847 54.1402 123.098 54.273C123.35 54.4057 123.54 54.6292 123.63 54.8973L126.354 63.9783L129.121 54.8973C129.252 54.4 129.807 54.0648 130.374 54.1729L130.45 54.1837C131.038 54.3675 131.365 54.9837 131.191 55.5567L127.41 68.054L126.212 72.054C125.943 72.9148 125.41 73.6708 124.687 74.2162C123.951 74.7635 123.057 75.0594 122.138 75.0594C122.072 75.0619 122.006 75.0583 121.941 75.0486Z" fill="#FEFEFE"/>
<path fill-rule="evenodd" clip-rule="evenodd" d="M55.3555 67.0271H57.4907C58.0599 67.0271 58.6058 66.8027 59.0083 66.4033C59.4108 66.0039 59.6369 65.4622 59.6369 64.8973V58.6595C59.6384 58.3798 59.5843 58.1026 59.4777 57.8437C59.3712 57.5847 59.2143 57.3492 59.016 57.1504C58.8177 56.9516 58.582 56.7936 58.3221 56.6852C58.0623 56.5769 57.7835 56.5204 57.5016 56.519H55.3555V67.0055V67.0271ZM54.0155 69.2541C53.7539 69.2103 53.5167 69.075 53.3469 68.8727C53.177 68.6705 53.0857 68.4146 53.0894 68.1514V48.7784C53.0875 48.6302 53.1154 48.4831 53.1716 48.3457C53.2277 48.2083 53.3109 48.0835 53.4163 47.9784C53.5438 47.847 53.7019 47.7487 53.8766 47.6922C54.0514 47.6356 54.2375 47.6226 54.4185 47.6541C54.9633 47.7622 55.3555 48.2163 55.3555 48.7676V54.2811H57.4907C58.0696 54.2797 58.6431 54.3916 59.1784 54.6105C59.7136 54.8293 60.2001 55.1508 60.61 55.5565C61.0198 55.9622 61.345 56.4442 61.5669 56.9748C61.7887 57.5054 61.9029 58.0742 61.9029 58.6487V64.8865C61.9001 66.044 61.4354 67.1533 60.6106 67.9717C59.7859 68.7902 58.668 69.2512 57.5016 69.2541H54.2224C54.1496 69.2584 54.0766 69.2548 54.0046 69.2433L54.0155 69.2541Z" fill="#333545"/>
<path fill-rule="evenodd" clip-rule="evenodd" d="M69.5834 56.4324C69.4611 56.4112 69.3372 56.4003 69.213 56.3999C68.9304 56.397 68.65 56.4502 68.3883 56.5562C68.1266 56.6622 67.8888 56.8189 67.6889 57.0173C67.4891 57.2156 67.3311 57.4515 67.2243 57.7112C67.1174 57.9709 67.0639 58.2492 67.0668 58.5297V65.027C67.0654 65.307 67.1199 65.5846 67.2273 65.8437C67.3346 66.1027 67.4926 66.338 67.6922 66.5361C67.8918 66.7341 68.129 66.891 68.39 66.9975C68.651 67.104 68.9308 67.1581 69.213 67.1567C69.7822 67.1567 70.3281 66.9323 70.7306 66.5329C71.1331 66.1335 71.3592 65.5918 71.3592 65.027V58.5405C71.3592 57.4918 70.6075 56.6161 69.5834 56.4324ZM68.4395 69.3513C67.4181 69.173 66.4929 68.6424 65.8272 67.8532C65.1615 67.0641 64.798 66.0669 64.8008 65.0378V58.5405C64.7989 57.9655 64.9126 57.3958 65.1352 56.8649C65.3578 56.334 65.6848 55.8525 66.0972 55.4486C66.5063 55.0428 66.9921 54.7211 67.5268 54.5022C68.0615 54.2833 68.6346 54.1714 69.213 54.1729C70.3803 54.1729 71.4998 54.6331 72.3252 55.4521C73.1506 56.2712 73.6143 57.3821 73.6143 58.5405V65.0378C73.6143 66.2053 73.1567 67.308 72.3179 68.1405C71.9105 68.5455 71.4265 68.8667 70.8937 69.0856C70.3608 69.3045 69.7897 69.4168 69.213 69.4161C68.9538 69.4172 68.6949 69.3955 68.4395 69.3513ZM81.2948 56.4432C81.1725 56.4219 81.0486 56.4111 80.9244 56.4107C80.6417 56.4079 80.3614 56.461 80.0996 56.567C79.8379 56.673 79.6002 56.8297 79.4003 57.0281C79.2004 57.2264 79.0425 57.4624 78.9356 57.7221C78.8288 57.9817 78.7753 58.26 78.7782 58.5405V65.0378C78.7768 65.3178 78.8313 65.5954 78.9386 65.8545C79.046 66.1135 79.204 66.3489 79.4036 66.5469C79.6032 66.745 79.8403 66.9018 80.1014 67.0083C80.3624 67.1148 80.6421 67.1689 80.9244 67.1675C81.2066 67.1689 81.4864 67.1148 81.7474 67.0083C82.0084 66.9018 82.2456 66.745 82.4452 66.5469C82.6448 66.3489 82.8028 66.1135 82.9101 65.8545C83.0175 65.5954 83.072 65.3178 83.0706 65.0378V58.5405C83.0706 57.5026 82.3189 56.627 81.2948 56.4432ZM80.1509 69.3513C79.1314 69.1707 78.2088 68.6392 77.5453 67.8502C76.8817 67.0613 76.5198 66.0654 76.5231 65.0378V58.5405C76.5248 57.9033 76.6666 57.2743 76.9386 56.6971C77.2107 56.12 77.6063 55.6087 78.098 55.199C78.5898 54.7893 79.1656 54.4911 79.7855 54.325C80.4054 54.159 81.0543 54.1292 81.687 54.2378C82.7086 54.4135 83.6349 54.9415 84.3025 55.7286C84.9702 56.5158 85.3364 57.5116 85.3366 58.5405V65.0378C85.3379 65.6153 85.223 66.1872 84.9985 66.72C84.774 67.2529 84.4445 67.7358 84.0293 68.1405C83.6219 68.5455 83.1379 68.8667 82.605 69.0856C82.0722 69.3045 81.5011 69.4168 80.9244 69.4161C80.6629 69.4161 80.4015 69.3945 80.1509 69.3513ZM89.1605 69.3945C88.8989 69.3507 88.6618 69.2154 88.4919 69.0132C88.3221 68.8109 88.2308 68.5551 88.2345 68.2918V48.7783C88.2345 48.4756 88.3434 48.1837 88.5613 47.9783C88.6898 47.8524 88.847 47.7592 89.0196 47.7065C89.1922 47.6538 89.3751 47.6432 89.5527 47.6756C90.0974 47.7621 90.5005 48.227 90.5005 48.7783V60.3243L95.708 54.5297C95.9694 54.2486 96.3616 54.1189 96.7538 54.1837C96.9516 54.2166 97.1368 54.3014 97.2904 54.4293C97.4439 54.5573 97.56 54.7237 97.6268 54.9114C97.6935 55.099 97.7084 55.3009 97.6698 55.4962C97.6312 55.6914 97.5406 55.8728 97.4075 56.0216L93.4746 60.3783L97.5382 67.7621C97.6114 67.8866 97.6587 68.0244 97.6774 68.1674C97.6961 68.3103 97.6858 68.4556 97.6472 68.5945C97.605 68.7377 97.5341 68.871 97.4386 68.9862C97.3431 69.1014 97.225 69.1962 97.0915 69.2648C96.8609 69.3964 96.5906 69.4424 96.3289 69.3945C96.1662 69.3672 96.0115 69.3046 95.8759 69.2112C95.7403 69.1178 95.6272 68.9958 95.5445 68.854L91.8841 62.1729L90.4896 63.6972V68.2918C90.4896 68.59 90.3702 68.876 90.1577 69.0868C89.9453 69.2977 89.6571 69.4161 89.3566 69.4161C89.2803 69.4161 89.215 69.4161 89.1387 69.3945H89.1605ZM139.067 69.3837C138.455 69.2819 137.873 69.0456 137.364 68.6921C136.855 68.3386 136.432 67.8768 136.126 67.3405C135.976 67.0777 135.937 66.7669 136.017 66.4756C136.104 66.1945 136.289 65.9567 136.54 65.8053C136.772 65.6792 137.042 65.6372 137.302 65.6864C137.629 65.7405 137.923 65.9351 138.087 66.227C138.381 66.7243 138.849 67.0486 139.427 67.1459C139.725 67.1972 140.03 67.1811 140.321 67.0987C140.611 67.0163 140.879 66.8698 141.105 66.6702C141.54 66.2702 141.758 65.6972 141.704 65.1351C141.692 64.8469 141.611 64.5656 141.469 64.314C141.327 64.0623 141.128 63.8473 140.887 63.6864L137.836 61.5351C137.339 61.1888 136.925 60.7379 136.624 60.2147C136.323 59.6915 136.142 59.1088 136.093 58.508C136.054 57.902 136.154 57.2949 136.386 56.733C136.618 56.1711 136.976 55.669 137.433 55.2648C137.879 54.8537 138.411 54.5462 138.992 54.3648C139.572 54.1834 140.186 54.1326 140.789 54.2161C142.074 54.4324 143.12 55.1675 143.719 56.2053C143.864 56.4647 143.901 56.7695 143.824 57.0557C143.747 57.3419 143.561 57.5873 143.305 57.7405C143.075 57.8721 142.804 57.918 142.543 57.8702C142.38 57.8429 142.225 57.7803 142.09 57.6869C141.954 57.5934 141.841 57.4715 141.758 57.3297C141.622 57.1003 141.435 56.9038 141.213 56.7543C140.991 56.6047 140.738 56.5059 140.473 56.4648C140.201 56.416 139.922 56.4307 139.657 56.5077C139.393 56.5846 139.15 56.7217 138.947 56.908C138.75 57.0928 138.596 57.3183 138.496 57.5687C138.397 57.819 138.354 58.088 138.37 58.3567C138.392 58.8864 138.697 59.4053 139.154 59.708L142.205 61.8161C142.723 62.1759 143.151 62.6483 143.457 63.1973C143.763 63.7462 143.938 64.3572 143.97 64.9837C144.02 65.6073 143.923 66.2339 143.687 66.8138C143.451 67.3937 143.081 67.9109 142.608 68.3243C142.148 68.7486 141.598 69.0658 140.999 69.2528C140.399 69.4398 139.766 69.4919 139.144 69.4053L139.056 69.3837H139.067ZM147.815 69.4161C147.554 69.3705 147.317 69.2351 147.145 69.0335C146.974 68.832 146.88 68.5771 146.879 68.3134V48.7999C146.877 48.6519 146.905 48.505 146.962 48.368C147.018 48.2309 147.102 48.1064 147.207 48.0017C147.313 47.897 147.438 47.8142 147.576 47.7583C147.714 47.7023 147.862 47.6742 148.012 47.6756L148.229 47.6864C148.774 47.7945 149.145 48.2378 149.145 48.7999V54.3134H151.291C151.869 54.312 152.442 54.424 152.977 54.643C153.511 54.862 153.997 55.1836 154.406 55.5895C154.815 55.9953 155.139 56.4774 155.36 57.0079C155.581 57.5385 155.693 58.1071 155.692 58.681V68.3026C155.693 68.4659 155.658 68.6273 155.589 68.7755C155.52 68.9238 155.419 69.0551 155.293 69.1603C155.167 69.2655 155.02 69.342 154.861 69.3844C154.702 69.4267 154.536 69.4339 154.374 69.4053C153.829 69.308 153.437 68.8432 153.437 68.2918V58.6702C153.437 58.391 153.381 58.1146 153.273 57.8568C153.165 57.599 153.007 57.365 152.808 57.1681C152.608 56.9712 152.372 56.8153 152.111 56.7095C151.851 56.6036 151.572 56.5499 151.291 56.5513H149.145V68.3026C149.146 68.467 149.11 68.6295 149.041 68.7787C148.971 68.9278 148.869 69.0598 148.742 69.1652C148.615 69.2706 148.466 69.3468 148.306 69.3883C148.146 69.4298 147.978 69.4357 147.815 69.4053V69.4161ZM163.373 56.454C163.064 56.3984 162.747 56.411 162.443 56.4909C162.14 56.5708 161.858 56.716 161.618 56.9162C161.378 57.1165 161.185 57.3668 161.053 57.6494C160.921 57.932 160.854 58.2399 160.856 58.5513V65.0486C160.854 65.3277 160.909 65.6044 161.015 65.8628C161.122 66.1211 161.279 66.356 161.477 66.5539C161.676 66.7518 161.912 66.9088 162.172 67.016C162.431 67.1231 162.71 67.1783 162.991 67.1783C163.558 67.1783 164.102 66.9621 164.506 66.5621C164.707 66.3644 164.867 66.1287 164.976 65.8687C165.084 65.6088 165.139 65.3299 165.137 65.0486V58.5405C165.137 57.5026 164.397 56.6161 163.362 56.4432L163.373 56.454ZM162.218 69.3405C161.199 69.1622 160.277 68.6328 159.613 67.8457C158.949 67.0585 158.587 66.0641 158.59 65.0378V58.5405C158.59 57.9024 158.731 57.2721 159.002 56.6937C159.273 56.1152 159.669 55.6026 160.161 55.1917C160.653 54.7808 161.229 54.4816 161.85 54.3149C162.47 54.1483 163.12 54.1183 163.754 54.227C164.777 54.403 165.705 54.9326 166.373 55.722C167.041 56.5114 167.406 57.5097 167.403 58.5405V65.0378C167.404 65.6135 167.289 66.1836 167.064 66.7146C166.84 67.2455 166.51 67.7266 166.096 68.1297C165.596 68.6276 164.983 68.9979 164.307 69.2087C163.632 69.4196 162.915 69.4648 162.218 69.3405Z" fill="#333545"/>
<path fill-rule="evenodd" clip-rule="evenodd" d="M184.802 55.5567C184.839 55.4194 184.848 55.2761 184.83 55.1352C184.811 54.9942 184.764 54.8582 184.693 54.7351C184.61 54.6039 184.502 54.4904 184.375 54.4012C184.248 54.3121 184.104 54.2492 183.952 54.2162C183.671 54.1635 183.38 54.2192 183.139 54.3719C182.899 54.5246 182.725 54.7628 182.655 55.0378C182.655 55.0919 181.435 59.9676 180.477 63.6757L180.455 63.7513L180.433 63.6757L178.254 55.0486C178.212 54.838 178.106 54.6453 177.95 54.4964C177.794 54.3476 177.596 54.2497 177.383 54.2162C177.318 54.2036 177.252 54.1963 177.187 54.1946C176.685 54.1946 176.25 54.5405 176.108 55.0378C176.097 55.0919 174.877 59.9676 173.929 63.6757L173.907 63.7513L173.886 63.6757C172.96 59.9676 171.707 55.0919 171.707 55.0378C171.655 54.8309 171.545 54.6432 171.388 54.4974C171.231 54.3516 171.036 54.2539 170.824 54.2162C170.643 54.1844 170.456 54.1978 170.282 54.2552C170.107 54.3127 169.949 54.4124 169.823 54.5453C169.696 54.6782 169.605 54.8403 169.557 55.0168C169.51 55.1934 169.507 55.3789 169.55 55.5567L172.829 68.5621C172.891 68.8005 173.03 69.012 173.225 69.1644C173.42 69.3167 173.659 69.4014 173.907 69.4054C174.441 69.4054 174.866 69.0594 174.975 68.5621L177.154 59.9243L177.187 59.8486L177.208 59.9243C178.167 63.6757 179.387 68.573 179.387 68.573C179.452 68.8067 179.591 69.0136 179.783 69.1634C179.975 69.3132 180.211 69.398 180.455 69.4054C180.706 69.4132 180.952 69.3329 181.149 69.1786C181.346 69.0244 181.482 68.8061 181.533 68.5621L184.802 55.5567Z" fill="#333545"/>
<g clip-path="url(#clip0_12354_544)">
<g opacity="0.3" clip-path="url(#clip1_12354_544)">
<path fill-rule="evenodd" clip-rule="evenodd" d="M67.9298 116.187C65.5439 117.401 64.351 118.829 64.351 120.469C65.3679 120.59 66.2088 121.02 66.8738 121.759C67.5387 122.498 67.8712 123.354 67.8712 124.325C67.8712 125.358 67.5485 126.228 66.9031 126.937C66.2577 127.646 65.4461 128 64.4683 128C63.3731 128 62.4246 127.539 61.6228 126.618C60.821 125.697 60.4201 124.578 60.4201 123.262C60.4201 119.315 62.5517 116.227 66.8151 114L67.9298 116.187ZM59.5098 116.187C57.1043 117.401 55.9016 118.829 55.9016 120.469C56.9381 120.59 57.7888 121.02 58.4537 121.759C59.1186 122.498 59.4511 123.354 59.4511 124.325C59.4511 125.358 59.1235 126.228 58.4684 126.937C57.8132 127.646 56.9967 128 56.0189 128C54.9237 128 53.9801 127.539 53.1881 126.618C52.396 125.697 52 124.578 52 123.262C52 119.315 54.1219 116.227 58.3657 114L59.5098 116.187Z" fill="#2EC5CE"/>
</g>
<g clip-path="url(#clip2_12354_544)">
<path d="M85.44 137V124.04H86.763V135.731H92.919V137H85.44ZM97.2344 137.27C96.5024 137.27 95.8874 137.138 95.3894 136.874C94.8974 136.61 94.5284 136.259 94.2824 135.821C94.0364 135.383 93.9134 134.906 93.9134 134.39C93.9134 133.862 94.0184 133.412 94.2284 133.04C94.4444 132.662 94.7354 132.353 95.1014 132.113C95.4734 131.873 95.9024 131.69 96.3884 131.564C96.8804 131.444 97.4234 131.339 98.0174 131.249C98.6174 131.153 99.2024 131.072 99.7724 131.006C100.348 130.934 100.852 130.865 101.284 130.799L100.816 131.087C100.834 130.127 100.648 129.416 100.258 128.954C99.8684 128.492 99.1904 128.261 98.2244 128.261C97.5584 128.261 96.9944 128.411 96.5324 128.711C96.0764 129.011 95.7554 129.485 95.5694 130.133L94.2824 129.755C94.5044 128.885 94.9514 128.21 95.6234 127.73C96.2954 127.25 97.1684 127.01 98.2424 127.01C99.1304 127.01 99.8834 127.178 100.501 127.514C101.125 127.844 101.566 128.324 101.824 128.954C101.944 129.236 102.022 129.551 102.058 129.899C102.094 130.247 102.112 130.601 102.112 130.961V137H100.933V134.561L101.275 134.705C100.945 135.539 100.432 136.175 99.7364 136.613C99.0404 137.051 98.2064 137.27 97.2344 137.27ZM97.3874 136.127C98.0054 136.127 98.5454 136.016 99.0074 135.794C99.4694 135.572 99.8414 135.269 100.123 134.885C100.405 134.495 100.588 134.057 100.672 133.571C100.744 133.259 100.783 132.917 100.789 132.545C100.795 132.167 100.798 131.885 100.798 131.699L101.302 131.96C100.852 132.02 100.363 132.08 99.8354 132.14C99.3134 132.2 98.7974 132.269 98.2874 132.347C97.7834 132.425 97.3274 132.518 96.9194 132.626C96.6434 132.704 96.3764 132.815 96.1184 132.959C95.8604 133.097 95.6474 133.283 95.4794 133.517C95.3174 133.751 95.2364 134.042 95.2364 134.39C95.2364 134.672 95.3054 134.945 95.4434 135.209C95.5874 135.473 95.8154 135.692 96.1274 135.866C96.4454 136.04 96.8654 136.127 97.3874 136.127ZM111.475 137V132.041C111.475 131.501 111.424 131.006 111.322 130.556C111.22 130.1 111.055 129.704 110.827 129.368C110.605 129.026 110.314 128.762 109.954 128.576C109.6 128.39 109.168 128.297 108.658 128.297C108.19 128.297 107.776 128.378 107.416 128.54C107.062 128.702 106.762 128.936 106.516 129.242C106.276 129.542 106.093 129.908 105.967 130.34C105.841 130.772 105.778 131.264 105.778 131.816L104.842 131.609C104.842 130.613 105.016 129.776 105.364 129.098C105.712 128.42 106.192 127.907 106.804 127.559C107.416 127.211 108.118 127.037 108.91 127.037C109.492 127.037 109.999 127.127 110.431 127.307C110.869 127.487 111.238 127.73 111.538 128.036C111.844 128.342 112.09 128.693 112.276 129.089C112.462 129.479 112.597 129.896 112.681 130.34C112.765 130.778 112.807 131.216 112.807 131.654V137H111.475ZM104.446 137V127.28H105.643V129.674H105.778V137H104.446ZM118.844 137.27C117.938 137.27 117.164 137.045 116.522 136.595C115.88 136.139 115.388 135.524 115.046 134.75C114.704 133.976 114.533 133.103 114.533 132.131C114.533 131.165 114.701 130.295 115.037 129.521C115.379 128.747 115.868 128.135 116.504 127.685C117.14 127.235 117.902 127.01 118.79 127.01C119.702 127.01 120.47 127.232 121.094 127.676C121.718 128.12 122.189 128.729 122.507 129.503C122.831 130.271 122.993 131.147 122.993 132.131C122.993 133.097 122.834 133.97 122.516 134.75C122.198 135.524 121.73 136.139 121.112 136.595C120.494 137.045 119.738 137.27 118.844 137.27ZM118.979 136.037C119.669 136.037 120.239 135.869 120.689 135.533C121.139 135.197 121.475 134.735 121.697 134.147C121.919 133.553 122.03 132.881 122.03 132.131C122.03 131.369 121.919 130.697 121.697 130.115C121.475 129.527 121.139 129.068 120.689 128.738C120.245 128.408 119.684 128.243 119.006 128.243C118.31 128.243 117.734 128.414 117.278 128.756C116.822 129.098 116.483 129.563 116.261 130.151C116.045 130.739 115.937 131.399 115.937 132.131C115.937 132.869 116.048 133.535 116.27 134.129C116.498 134.717 116.837 135.182 117.287 135.524C117.737 135.866 118.301 136.037 118.979 136.037ZM122.03 137V129.683H121.886V124.04H123.218V137H122.03ZM125.922 125.435V123.95H127.245V125.435H125.922ZM125.922 137V127.28H127.245V137H125.922ZM130.907 137V126.56C130.907 126.308 130.919 126.059 130.943 125.813C130.973 125.567 131.03 125.333 131.114 125.111C131.198 124.883 131.33 124.673 131.51 124.481C131.708 124.265 131.924 124.109 132.158 124.013C132.392 123.911 132.635 123.845 132.887 123.815C133.145 123.785 133.397 123.77 133.643 123.77H134.885V124.886H133.733C133.229 124.886 132.851 125.009 132.599 125.255C132.353 125.501 132.23 125.888 132.23 126.416V137H130.907ZM129.224 128.414V127.28H134.885V128.414H129.224ZM137.71 141.32L139.591 136.217L139.618 137.729L135.361 127.28H136.765L140.257 136.019H139.681L142.903 127.28H144.253L139.033 141.32H137.71ZM153.047 137.261C151.907 137.261 150.968 137.015 150.23 136.523C149.498 136.031 149.048 135.347 148.88 134.471L150.23 134.246C150.374 134.798 150.701 135.239 151.211 135.569C151.727 135.893 152.363 136.055 153.119 136.055C153.857 136.055 154.439 135.902 154.865 135.596C155.291 135.284 155.504 134.861 155.504 134.327C155.504 134.027 155.435 133.784 155.297 133.598C155.165 133.406 154.892 133.229 154.478 133.067C154.064 132.905 153.446 132.713 152.624 132.491C151.742 132.251 151.052 132.011 150.554 131.771C150.056 131.531 149.702 131.255 149.492 130.943C149.282 130.625 149.177 130.238 149.177 129.782C149.177 129.23 149.333 128.747 149.645 128.333C149.957 127.913 150.389 127.589 150.941 127.361C151.493 127.127 152.135 127.01 152.867 127.01C153.599 127.01 154.253 127.13 154.829 127.37C155.411 127.604 155.879 127.934 156.233 128.36C156.587 128.786 156.797 129.281 156.863 129.845L155.513 130.088C155.423 129.518 155.138 129.068 154.658 128.738C154.184 128.402 153.581 128.228 152.849 128.216C152.159 128.198 151.598 128.33 151.166 128.612C150.734 128.888 150.518 129.257 150.518 129.719C150.518 129.977 150.596 130.199 150.752 130.385C150.908 130.565 151.19 130.736 151.598 130.898C152.012 131.06 152.6 131.237 153.362 131.429C154.256 131.657 154.958 131.897 155.468 132.149C155.978 132.401 156.341 132.698 156.557 133.04C156.773 133.382 156.881 133.805 156.881 134.309C156.881 135.227 156.539 135.95 155.855 136.478C155.177 137 154.241 137.261 153.047 137.261ZM161.658 137.27C160.926 137.27 160.311 137.138 159.813 136.874C159.321 136.61 158.952 136.259 158.706 135.821C158.46 135.383 158.337 134.906 158.337 134.39C158.337 133.862 158.442 133.412 158.652 133.04C158.868 132.662 159.159 132.353 159.525 132.113C159.897 131.873 160.326 131.69 160.812 131.564C161.304 131.444 161.847 131.339 162.441 131.249C163.041 131.153 163.626 131.072 164.196 131.006C164.772 130.934 165.276 130.865 165.708 130.799L165.24 131.087C165.258 130.127 165.072 129.416 164.682 128.954C164.292 128.492 163.614 128.261 162.648 128.261C161.982 128.261 161.418 128.411 160.956 128.711C160.5 129.011 160.179 129.485 159.993 130.133L158.706 129.755C158.928 128.885 159.375 128.21 160.047 127.73C160.719 127.25 161.592 127.01 162.666 127.01C163.554 127.01 164.307 127.178 164.925 127.514C165.549 127.844 165.99 128.324 166.248 128.954C166.368 129.236 166.446 129.551 166.482 129.899C166.518 130.247 166.536 130.601 166.536 130.961V137H165.357V134.561L165.699 134.705C165.369 135.539 164.856 136.175 164.16 136.613C163.464 137.051 162.63 137.27 161.658 137.27ZM161.811 136.127C162.429 136.127 162.969 136.016 163.431 135.794C163.893 135.572 164.265 135.269 164.547 134.885C164.829 134.495 165.012 134.057 165.096 133.571C165.168 133.259 165.207 132.917 165.213 132.545C165.219 132.167 165.222 131.885 165.222 131.699L165.726 131.96C165.276 132.02 164.787 132.08 164.259 132.14C163.737 132.2 163.221 132.269 162.711 132.347C162.207 132.425 161.751 132.518 161.343 132.626C161.067 132.704 160.8 132.815 160.542 132.959C160.284 133.097 160.071 133.283 159.903 133.517C159.741 133.751 159.66 134.042 159.66 134.39C159.66 134.672 159.729 134.945 159.867 135.209C160.011 135.473 160.239 135.692 160.551 135.866C160.869 136.04 161.289 136.127 161.811 136.127ZM171.156 137L167.628 127.28H168.969L171.84 135.272L174.693 127.28H176.052L172.524 137H171.156ZM181.43 137.27C180.482 137.27 179.66 137.06 178.964 136.64C178.274 136.22 177.737 135.629 177.353 134.867C176.969 134.105 176.777 133.211 176.777 132.185C176.777 131.123 176.966 130.205 177.344 129.431C177.722 128.657 178.253 128.06 178.937 127.64C179.627 127.22 180.44 127.01 181.376 127.01C182.336 127.01 183.155 127.232 183.833 127.676C184.511 128.114 185.024 128.744 185.372 129.566C185.72 130.388 185.879 131.369 185.849 132.509H184.499V132.041C184.475 130.781 184.202 129.83 183.68 129.188C183.164 128.546 182.408 128.225 181.412 128.225C180.368 128.225 179.567 128.564 179.009 129.242C178.457 129.92 178.181 130.886 178.181 132.14C178.181 133.364 178.457 134.315 179.009 134.993C179.567 135.665 180.356 136.001 181.376 136.001C182.072 136.001 182.678 135.842 183.194 135.524C183.716 135.2 184.127 134.735 184.427 134.129L185.66 134.606C185.276 135.452 184.709 136.109 183.959 136.577C183.215 137.039 182.372 137.27 181.43 137.27ZM177.713 132.509V131.402H185.138V132.509H177.713ZM191.617 137.27C190.711 137.27 189.937 137.045 189.295 136.595C188.653 136.139 188.161 135.524 187.819 134.75C187.477 133.976 187.306 133.103 187.306 132.131C187.306 131.165 187.474 130.295 187.81 129.521C188.152 128.747 188.641 128.135 189.277 127.685C189.913 127.235 190.675 127.01 191.563 127.01C192.475 127.01 193.243 127.232 193.867 127.676C194.491 128.12 194.962 128.729 195.28 129.503C195.604 130.271 195.766 131.147 195.766 132.131C195.766 133.097 195.607 133.97 195.289 134.75C194.971 135.524 194.503 136.139 193.885 136.595C193.267 137.045 192.511 137.27 191.617 137.27ZM191.752 136.037C192.442 136.037 193.012 135.869 193.462 135.533C193.912 135.197 194.248 134.735 194.47 134.147C194.692 133.553 194.803 132.881 194.803 132.131C194.803 131.369 194.692 130.697 194.47 130.115C194.248 129.527 193.912 129.068 193.462 128.738C193.018 128.408 192.457 128.243 191.779 128.243C191.083 128.243 190.507 128.414 190.051 128.756C189.595 129.098 189.256 129.563 189.034 130.151C188.818 130.739 188.71 131.399 188.71 132.131C188.71 132.869 188.821 133.535 189.043 134.129C189.271 134.717 189.61 135.182 190.06 135.524C190.51 135.866 191.074 136.037 191.752 136.037ZM194.803 137V129.683H194.659V124.04H195.991V137H194.803ZM206.178 137.27C205.212 137.27 204.387 137.051 203.703 136.613C203.019 136.175 202.494 135.569 202.128 134.795C201.762 134.021 201.579 133.133 201.579 132.131C201.579 131.111 201.765 130.217 202.137 129.449C202.509 128.681 203.037 128.084 203.721 127.658C204.411 127.226 205.23 127.01 206.178 127.01C207.15 127.01 207.978 127.229 208.662 127.667C209.352 128.099 209.877 128.702 210.237 129.476C210.603 130.244 210.786 131.129 210.786 132.131C210.786 133.151 210.603 134.048 210.237 134.822C209.871 135.59 209.343 136.19 208.653 136.622C207.963 137.054 207.138 137.27 206.178 137.27ZM206.178 136.001C207.258 136.001 208.062 135.644 208.59 134.93C209.118 134.21 209.382 133.277 209.382 132.131C209.382 130.955 209.115 130.019 208.581 129.323C208.053 128.627 207.252 128.279 206.178 128.279C205.452 128.279 204.852 128.444 204.378 128.774C203.91 129.098 203.559 129.551 203.325 130.133C203.097 130.709 202.983 131.375 202.983 132.131C202.983 133.301 203.253 134.24 203.793 134.948C204.333 135.65 205.128 136.001 206.178 136.001ZM216.489 137.243C215.907 137.243 215.397 137.153 214.959 136.973C214.527 136.793 214.158 136.55 213.852 136.244C213.552 135.938 213.309 135.59 213.123 135.2C212.937 134.804 212.802 134.387 212.718 133.949C212.634 133.505 212.592 133.064 212.592 132.626V127.28H213.924V132.239C213.924 132.773 213.975 133.268 214.077 133.724C214.179 134.18 214.341 134.579 214.563 134.921C214.791 135.257 215.082 135.518 215.436 135.704C215.796 135.89 216.231 135.983 216.741 135.983C217.209 135.983 217.62 135.902 217.974 135.74C218.334 135.578 218.634 135.347 218.874 135.047C219.12 134.741 219.306 134.372 219.432 133.94C219.558 133.502 219.621 133.01 219.621 132.464L220.557 132.671C220.557 133.667 220.383 134.504 220.035 135.182C219.687 135.86 219.207 136.373 218.595 136.721C217.983 137.069 217.281 137.243 216.489 137.243ZM219.756 137V134.606H219.621V127.28H220.944V137H219.756ZM223.459 137V127.28H224.647V129.62L224.413 129.314C224.521 129.026 224.662 128.762 224.836 128.522C225.01 128.276 225.199 128.075 225.403 127.919C225.655 127.697 225.949 127.529 226.285 127.415C226.621 127.295 226.96 127.226 227.302 127.208C227.644 127.184 227.956 127.208 228.238 127.28V128.522C227.884 128.432 227.497 128.411 227.077 128.459C226.657 128.507 226.27 128.675 225.916 128.963C225.592 129.215 225.349 129.518 225.187 129.872C225.025 130.22 224.917 130.592 224.863 130.988C224.809 131.378 224.782 131.765 224.782 132.149V137H223.459ZM238.841 137C238.295 137.114 237.755 137.159 237.221 137.135C236.693 137.111 236.219 136.997 235.799 136.793C235.385 136.589 235.07 136.271 234.854 135.839C234.68 135.479 234.584 135.116 234.566 134.75C234.554 134.378 234.548 133.955 234.548 133.481V124.58H235.862V133.427C235.862 133.835 235.865 134.177 235.871 134.453C235.883 134.723 235.946 134.963 236.06 135.173C236.276 135.575 236.618 135.815 237.086 135.893C237.56 135.971 238.145 135.953 238.841 135.839V137ZM232.469 128.414V127.28H238.841V128.414H232.469ZM240.936 125.435V123.95H242.259V125.435H240.936ZM240.936 137V127.28H242.259V137H240.936ZM256.549 137L256.558 130.619C256.558 129.869 256.348 129.281 255.928 128.855C255.514 128.423 254.986 128.207 254.344 128.207C253.978 128.207 253.621 128.291 253.273 128.459C252.925 128.627 252.637 128.897 252.409 129.269C252.187 129.641 252.076 130.127 252.076 130.727L251.293 130.502C251.275 129.806 251.41 129.197 251.698 128.675C251.992 128.153 252.394 127.748 252.904 127.46C253.42 127.166 254.002 127.019 254.65 127.019C255.628 127.019 256.411 127.322 256.999 127.928C257.587 128.528 257.881 129.341 257.881 130.367L257.872 137H256.549ZM244.948 137V127.28H246.136V129.674H246.28V137H244.948ZM250.762 137L250.771 130.709C250.771 129.935 250.564 129.326 250.15 128.882C249.742 128.432 249.202 128.207 248.53 128.207C247.858 128.207 247.315 128.438 246.901 128.9C246.487 129.356 246.28 129.965 246.28 130.727L245.488 130.295C245.488 129.671 245.635 129.113 245.929 128.621C246.223 128.123 246.625 127.733 247.135 127.451C247.645 127.163 248.224 127.019 248.872 127.019C249.49 127.019 250.039 127.151 250.519 127.415C251.005 127.679 251.386 128.063 251.662 128.567C251.938 129.071 252.076 129.683 252.076 130.403L252.067 137H250.762ZM264.258 137.27C263.31 137.27 262.488 137.06 261.792 136.64C261.102 136.22 260.565 135.629 260.181 134.867C259.797 134.105 259.605 133.211 259.605 132.185C259.605 131.123 259.794 130.205 260.172 129.431C260.55 128.657 261.081 128.06 261.765 127.64C262.455 127.22 263.268 127.01 264.204 127.01C265.164 127.01 265.983 127.232 266.661 127.676C267.339 128.114 267.852 128.744 268.2 129.566C268.548 130.388 268.707 131.369 268.677 132.509H267.327V132.041C267.303 130.781 267.03 129.83 266.508 129.188C265.992 128.546 265.236 128.225 264.24 128.225C263.196 128.225 262.395 128.564 261.837 129.242C261.285 129.92 261.009 130.886 261.009 132.14C261.009 133.364 261.285 134.315 261.837 134.993C262.395 135.665 263.184 136.001 264.204 136.001C264.9 136.001 265.506 135.842 266.022 135.524C266.544 135.2 266.955 134.735 267.255 134.129L268.488 134.606C268.104 135.452 267.537 136.109 266.787 136.577C266.043 137.039 265.2 137.27 264.258 137.27ZM260.541 132.509V131.402H267.966V132.509H260.541ZM274.458 125.435V123.95H275.781V125.435H274.458ZM274.458 137V127.28H275.781V137H274.458ZM285.499 137V132.041C285.499 131.501 285.448 131.006 285.346 130.556C285.244 130.1 285.079 129.704 284.851 129.368C284.629 129.026 284.338 128.762 283.978 128.576C283.624 128.39 283.192 128.297 282.682 128.297C282.214 128.297 281.8 128.378 281.44 128.54C281.086 128.702 280.786 128.936 280.54 129.242C280.3 129.542 280.117 129.908 279.991 130.34C279.865 130.772 279.802 131.264 279.802 131.816L278.866 131.609C278.866 130.613 279.04 129.776 279.388 129.098C279.736 128.42 280.216 127.907 280.828 127.559C281.44 127.211 282.142 127.037 282.934 127.037C283.516 127.037 284.023 127.127 284.455 127.307C284.893 127.487 285.262 127.73 285.562 128.036C285.868 128.342 286.114 128.693 286.3 129.089C286.486 129.479 286.621 129.896 286.705 130.34C286.789 130.778 286.831 131.216 286.831 131.654V137H285.499ZM278.47 137V127.28H279.667V129.674H279.802V137H278.47ZM89.031 169.27C88.125 169.27 87.351 169.045 86.709 168.595C86.067 168.139 85.575 167.524 85.233 166.75C84.891 165.976 84.72 165.103 84.72 164.131C84.72 163.165 84.888 162.295 85.224 161.521C85.566 160.747 86.055 160.135 86.691 159.685C87.327 159.235 88.089 159.01 88.977 159.01C89.889 159.01 90.657 159.232 91.281 159.676C91.905 160.12 92.376 160.729 92.694 161.503C93.018 162.271 93.18 163.147 93.18 164.131C93.18 165.097 93.021 165.97 92.703 166.75C92.385 167.524 91.917 168.139 91.299 168.595C90.681 169.045 89.925 169.27 89.031 169.27ZM89.166 168.037C89.856 168.037 90.426 167.869 90.876 167.533C91.326 167.197 91.662 166.735 91.884 166.147C92.106 165.553 92.217 164.881 92.217 164.131C92.217 163.369 92.106 162.697 91.884 162.115C91.662 161.527 91.326 161.068 90.876 160.738C90.432 160.408 89.871 160.243 89.193 160.243C88.497 160.243 87.921 160.414 87.465 160.756C87.009 161.098 86.67 161.563 86.448 162.151C86.232 162.739 86.124 163.399 86.124 164.131C86.124 164.869 86.235 165.535 86.457 166.129C86.685 166.717 87.024 167.182 87.474 167.524C87.924 167.866 88.488 168.037 89.166 168.037ZM92.217 169V161.683H92.073V156.04H93.405V169H92.217ZM100.043 169.27C99.0949 169.27 98.2729 169.06 97.5769 168.64C96.8869 168.22 96.3499 167.629 95.9659 166.867C95.5819 166.105 95.3899 165.211 95.3899 164.185C95.3899 163.123 95.5789 162.205 95.9569 161.431C96.3349 160.657 96.8659 160.06 97.5499 159.64C98.2399 159.22 99.0529 159.01 99.9889 159.01C100.949 159.01 101.768 159.232 102.446 159.676C103.124 160.114 103.637 160.744 103.985 161.566C104.333 162.388 104.492 163.369 104.462 164.509H103.112V164.041C103.088 162.781 102.815 161.83 102.293 161.188C101.777 160.546 101.021 160.225 100.025 160.225C98.9809 160.225 98.1799 160.564 97.6219 161.242C97.0699 161.92 96.7939 162.886 96.7939 164.14C96.7939 165.364 97.0699 166.315 97.6219 166.993C98.1799 167.665 98.9689 168.001 99.9889 168.001C100.685 168.001 101.291 167.842 101.807 167.524C102.329 167.2 102.74 166.735 103.04 166.129L104.273 166.606C103.889 167.452 103.322 168.109 102.572 168.577C101.828 169.039 100.985 169.27 100.043 169.27ZM96.3259 164.509V163.402H103.751V164.509H96.3259ZM110.086 169.261C108.946 169.261 108.007 169.015 107.269 168.523C106.537 168.031 106.087 167.347 105.919 166.471L107.269 166.246C107.413 166.798 107.74 167.239 108.25 167.569C108.766 167.893 109.402 168.055 110.158 168.055C110.896 168.055 111.478 167.902 111.904 167.596C112.33 167.284 112.543 166.861 112.543 166.327C112.543 166.027 112.474 165.784 112.336 165.598C112.204 165.406 111.931 165.229 111.517 165.067C111.103 164.905 110.485 164.713 109.663 164.491C108.781 164.251 108.091 164.011 107.593 163.771C107.095 163.531 106.741 163.255 106.531 162.943C106.321 162.625 106.216 162.238 106.216 161.782C106.216 161.23 106.372 160.747 106.684 160.333C106.996 159.913 107.428 159.589 107.98 159.361C108.532 159.127 109.174 159.01 109.906 159.01C110.638 159.01 111.292 159.13 111.868 159.37C112.45 159.604 112.918 159.934 113.272 160.36C113.626 160.786 113.836 161.281 113.902 161.845L112.552 162.088C112.462 161.518 112.177 161.068 111.697 160.738C111.223 160.402 110.62 160.228 109.888 160.216C109.198 160.198 108.637 160.33 108.205 160.612C107.773 160.888 107.557 161.257 107.557 161.719C107.557 161.977 107.635 162.199 107.791 162.385C107.947 162.565 108.229 162.736 108.637 162.898C109.051 163.06 109.639 163.237 110.401 163.429C111.295 163.657 111.997 163.897 112.507 164.149C113.017 164.401 113.38 164.698 113.596 165.04C113.812 165.382 113.92 165.805 113.92 166.309C113.92 167.227 113.578 167.95 112.894 168.478C112.216 169 111.28 169.261 110.086 169.261ZM116.096 157.435V155.95H117.419V157.435H116.096ZM116.096 169V159.28H117.419V169H116.096ZM123.978 173.59C123.48 173.59 122.988 173.515 122.502 173.365C122.022 173.221 121.578 172.99 121.17 172.672C120.762 172.36 120.42 171.952 120.144 171.448L121.341 170.782C121.611 171.322 121.989 171.709 122.475 171.943C122.967 172.183 123.468 172.303 123.978 172.303C124.68 172.303 125.247 172.171 125.679 171.907C126.117 171.649 126.435 171.265 126.633 170.755C126.831 170.245 126.927 169.609 126.921 168.847V166.255H127.074V159.28H128.253V168.865C128.253 169.141 128.244 169.405 128.226 169.657C128.214 169.915 128.187 170.167 128.145 170.413C128.031 171.139 127.794 171.736 127.434 172.204C127.08 172.672 126.612 173.02 126.03 173.248C125.454 173.476 124.77 173.59 123.978 173.59ZM123.888 169.27C122.982 169.27 122.208 169.045 121.566 168.595C120.924 168.139 120.432 167.524 120.09 166.75C119.748 165.976 119.577 165.103 119.577 164.131C119.577 163.165 119.745 162.295 120.081 161.521C120.423 160.747 120.912 160.135 121.548 159.685C122.184 159.235 122.946 159.01 123.834 159.01C124.746 159.01 125.514 159.232 126.138 159.676C126.762 160.12 127.233 160.729 127.551 161.503C127.875 162.271 128.037 163.147 128.037 164.131C128.037 165.097 127.878 165.97 127.56 166.75C127.242 167.524 126.774 168.139 126.156 168.595C125.538 169.045 124.782 169.27 123.888 169.27ZM124.023 168.037C124.713 168.037 125.283 167.869 125.733 167.533C126.183 167.197 126.519 166.735 126.741 166.147C126.963 165.553 127.074 164.881 127.074 164.131C127.074 163.369 126.963 162.697 126.741 162.115C126.519 161.527 126.183 161.068 125.733 160.738C125.289 160.408 124.728 160.243 124.05 160.243C123.354 160.243 122.778 160.414 122.322 160.756C121.866 161.098 121.527 161.563 121.305 162.151C121.089 162.739 120.981 163.399 120.981 164.131C120.981 164.869 121.092 165.535 121.314 166.129C121.542 166.717 121.881 167.182 122.331 167.524C122.781 167.866 123.345 168.037 124.023 168.037ZM137.79 169V164.041C137.79 163.501 137.739 163.006 137.637 162.556C137.535 162.1 137.37 161.704 137.142 161.368C136.92 161.026 136.629 160.762 136.269 160.576C135.915 160.39 135.483 160.297 134.973 160.297C134.505 160.297 134.091 160.378 133.731 160.54C133.377 160.702 133.077 160.936 132.831 161.242C132.591 161.542 132.408 161.908 132.282 162.34C132.156 162.772 132.093 163.264 132.093 163.816L131.157 163.609C131.157 162.613 131.331 161.776 131.679 161.098C132.027 160.42 132.507 159.907 133.119 159.559C133.731 159.211 134.433 159.037 135.225 159.037C135.807 159.037 136.314 159.127 136.746 159.307C137.184 159.487 137.553 159.73 137.853 160.036C138.159 160.342 138.405 160.693 138.591 161.089C138.777 161.479 138.912 161.896 138.996 162.34C139.08 162.778 139.122 163.216 139.122 163.654V169H137.79ZM130.761 169V159.28H131.958V161.674H132.093V169H130.761ZM141.637 157.435V155.95H142.96V157.435H141.637ZM141.637 169V159.28H142.96V169H141.637ZM152.678 169V164.041C152.678 163.501 152.627 163.006 152.525 162.556C152.423 162.1 152.258 161.704 152.03 161.368C151.808 161.026 151.517 160.762 151.157 160.576C150.803 160.39 150.371 160.297 149.861 160.297C149.393 160.297 148.979 160.378 148.619 160.54C148.265 160.702 147.965 160.936 147.719 161.242C147.479 161.542 147.296 161.908 147.17 162.34C147.044 162.772 146.981 163.264 146.981 163.816L146.045 163.609C146.045 162.613 146.219 161.776 146.567 161.098C146.915 160.42 147.395 159.907 148.007 159.559C148.619 159.211 149.321 159.037 150.113 159.037C150.695 159.037 151.202 159.127 151.634 159.307C152.072 159.487 152.441 159.73 152.741 160.036C153.047 160.342 153.293 160.693 153.479 161.089C153.665 161.479 153.8 161.896 153.884 162.34C153.968 162.778 154.01 163.216 154.01 163.654V169H152.678ZM145.649 169V159.28H146.846V161.674H146.981V169H145.649ZM160.207 173.59C159.709 173.59 159.217 173.515 158.731 173.365C158.251 173.221 157.807 172.99 157.399 172.672C156.991 172.36 156.649 171.952 156.373 171.448L157.57 170.782C157.84 171.322 158.218 171.709 158.704 171.943C159.196 172.183 159.697 172.303 160.207 172.303C160.909 172.303 161.476 172.171 161.908 171.907C162.346 171.649 162.664 171.265 162.862 170.755C163.06 170.245 163.156 169.609 163.15 168.847V166.255H163.303V159.28H164.482V168.865C164.482 169.141 164.473 169.405 164.455 169.657C164.443 169.915 164.416 170.167 164.374 170.413C164.26 171.139 164.023 171.736 163.663 172.204C163.309 172.672 162.841 173.02 162.259 173.248C161.683 173.476 160.999 173.59 160.207 173.59ZM160.117 169.27C159.211 169.27 158.437 169.045 157.795 168.595C157.153 168.139 156.661 167.524 156.319 166.75C155.977 165.976 155.806 165.103 155.806 164.131C155.806 163.165 155.974 162.295 156.31 161.521C156.652 160.747 157.141 160.135 157.777 159.685C158.413 159.235 159.175 159.01 160.063 159.01C160.975 159.01 161.743 159.232 162.367 159.676C162.991 160.12 163.462 160.729 163.78 161.503C164.104 162.271 164.266 163.147 164.266 164.131C164.266 165.097 164.107 165.97 163.789 166.75C163.471 167.524 163.003 168.139 162.385 168.595C161.767 169.045 161.011 169.27 160.117 169.27ZM160.252 168.037C160.942 168.037 161.512 167.869 161.962 167.533C162.412 167.197 162.748 166.735 162.97 166.147C163.192 165.553 163.303 164.881 163.303 164.131C163.303 163.369 163.192 162.697 162.97 162.115C162.748 161.527 162.412 161.068 161.962 160.738C161.518 160.408 160.957 160.243 160.279 160.243C159.583 160.243 159.007 160.414 158.551 160.756C158.095 161.098 157.756 161.563 157.534 162.151C157.318 162.739 157.21 163.399 157.21 164.131C157.21 164.869 157.321 165.535 157.543 166.129C157.771 166.717 158.11 167.182 158.56 167.524C159.01 167.866 159.574 168.037 160.252 168.037ZM182.194 169L182.203 162.619C182.203 161.869 181.993 161.281 181.573 160.855C181.159 160.423 180.631 160.207 179.989 160.207C179.623 160.207 179.266 160.291 178.918 160.459C178.57 160.627 178.282 160.897 178.054 161.269C177.832 161.641 177.721 162.127 177.721 162.727L176.938 162.502C176.92 161.806 177.055 161.197 177.343 160.675C177.637 160.153 178.039 159.748 178.549 159.46C179.065 159.166 179.647 159.019 180.295 159.019C181.273 159.019 182.056 159.322 182.644 159.928C183.232 160.528 183.526 161.341 183.526 162.367L183.517 169H182.194ZM170.593 169V159.28H171.781V161.674H171.925V169H170.593ZM176.407 169L176.416 162.709C176.416 161.935 176.209 161.326 175.795 160.882C175.387 160.432 174.847 160.207 174.175 160.207C173.503 160.207 172.96 160.438 172.546 160.9C172.132 161.356 171.925 161.965 171.925 162.727L171.133 162.295C171.133 161.671 171.28 161.113 171.574 160.621C171.868 160.123 172.27 159.733 172.78 159.451C173.29 159.163 173.869 159.019 174.517 159.019C175.135 159.019 175.684 159.151 176.164 159.415C176.65 159.679 177.031 160.063 177.307 160.567C177.583 161.071 177.721 161.683 177.721 162.403L177.712 169H176.407ZM186.894 173.32L188.775 168.217L188.802 169.729L184.545 159.28H185.949L189.441 168.019H188.865L192.087 159.28H193.437L188.217 173.32H186.894ZM202.636 169.27C201.658 169.27 200.83 169.051 200.152 168.613C199.474 168.175 198.958 167.572 198.604 166.804C198.256 166.03 198.076 165.142 198.064 164.14C198.076 163.12 198.262 162.226 198.622 161.458C198.982 160.684 199.501 160.084 200.179 159.658C200.857 159.226 201.679 159.01 202.645 159.01C203.629 159.01 204.484 159.25 205.21 159.73C205.942 160.21 206.443 160.867 206.713 161.701L205.417 162.115C205.189 161.533 204.826 161.083 204.328 160.765C203.836 160.441 203.272 160.279 202.636 160.279C201.922 160.279 201.331 160.444 200.863 160.774C200.395 161.098 200.047 161.551 199.819 162.133C199.591 162.715 199.474 163.384 199.468 164.14C199.48 165.304 199.75 166.24 200.278 166.948C200.806 167.65 201.592 168.001 202.636 168.001C203.296 168.001 203.857 167.851 204.319 167.551C204.787 167.245 205.141 166.801 205.381 166.219L206.713 166.615C206.353 167.479 205.825 168.139 205.129 168.595C204.433 169.045 203.602 169.27 202.636 169.27ZM212.366 169.27C211.4 169.27 210.575 169.051 209.891 168.613C209.207 168.175 208.682 167.569 208.316 166.795C207.95 166.021 207.767 165.133 207.767 164.131C207.767 163.111 207.953 162.217 208.325 161.449C208.697 160.681 209.225 160.084 209.909 159.658C210.599 159.226 211.418 159.01 212.366 159.01C213.338 159.01 214.166 159.229 214.85 159.667C215.54 160.099 216.065 160.702 216.425 161.476C216.791 162.244 216.974 163.129 216.974 164.131C216.974 165.151 216.791 166.048 216.425 166.822C216.059 167.59 215.531 168.19 214.841 168.622C214.151 169.054 213.326 169.27 212.366 169.27ZM212.366 168.001C213.446 168.001 214.25 167.644 214.778 166.93C215.306 166.21 215.57 165.277 215.57 164.131C215.57 162.955 215.303 162.019 214.769 161.323C214.241 160.627 213.44 160.279 212.366 160.279C211.64 160.279 211.04 160.444 210.566 160.774C210.098 161.098 209.747 161.551 209.513 162.133C209.285 162.709 209.171 163.375 209.171 164.131C209.171 165.301 209.441 166.24 209.981 166.948C210.521 167.65 211.316 168.001 212.366 168.001ZM230.551 169L230.56 162.619C230.56 161.869 230.35 161.281 229.93 160.855C229.516 160.423 228.988 160.207 228.346 160.207C227.98 160.207 227.623 160.291 227.275 160.459C226.927 160.627 226.639 160.897 226.411 161.269C226.189 161.641 226.078 162.127 226.078 162.727L225.295 162.502C225.277 161.806 225.412 161.197 225.7 160.675C225.994 160.153 226.396 159.748 226.906 159.46C227.422 159.166 228.004 159.019 228.652 159.019C229.63 159.019 230.413 159.322 231.001 159.928C231.589 160.528 231.883 161.341 231.883 162.367L231.874 169H230.551ZM218.95 169V159.28H220.138V161.674H220.282V169H218.95ZM224.764 169L224.773 162.709C224.773 161.935 224.566 161.326 224.152 160.882C223.744 160.432 223.204 160.207 222.532 160.207C221.86 160.207 221.317 160.438 220.903 160.9C220.489 161.356 220.282 161.965 220.282 162.727L219.49 162.295C219.49 161.671 219.637 161.113 219.931 160.621C220.225 160.123 220.627 159.733 221.137 159.451C221.647 159.163 222.226 159.019 222.874 159.019C223.492 159.019 224.041 159.151 224.521 159.415C225.007 159.679 225.388 160.063 225.664 160.567C225.94 161.071 226.078 161.683 226.078 162.403L226.069 169H224.764ZM238.582 169.27C237.688 169.27 236.932 169.045 236.314 168.595C235.696 168.139 235.228 167.524 234.91 166.75C234.592 165.97 234.433 165.097 234.433 164.131C234.433 163.147 234.592 162.271 234.91 161.503C235.234 160.729 235.708 160.12 236.332 159.676C236.956 159.232 237.724 159.01 238.636 159.01C239.524 159.01 240.286 159.235 240.922 159.685C241.558 160.135 242.044 160.747 242.38 161.521C242.722 162.295 242.893 163.165 242.893 164.131C242.893 165.103 242.722 165.976 242.38 166.75C242.038 167.524 241.546 168.139 240.904 168.595C240.262 169.045 239.488 169.27 238.582 169.27ZM234.208 173.32V159.28H235.396V166.597H235.54V173.32H234.208ZM238.447 168.037C239.125 168.037 239.689 167.866 240.139 167.524C240.589 167.182 240.925 166.717 241.147 166.129C241.375 165.535 241.489 164.869 241.489 164.131C241.489 163.399 241.378 162.739 241.156 162.151C240.934 161.563 240.595 161.098 240.139 160.756C239.689 160.414 239.116 160.243 238.42 160.243C237.742 160.243 237.178 160.408 236.728 160.738C236.284 161.068 235.951 161.527 235.729 162.115C235.507 162.697 235.396 163.369 235.396 164.131C235.396 164.881 235.507 165.553 235.729 166.147C235.951 166.735 236.287 167.197 236.737 167.533C237.187 167.869 237.757 168.037 238.447 168.037ZM247.65 169.27C246.918 169.27 246.303 169.138 245.805 168.874C245.313 168.61 244.944 168.259 244.698 167.821C244.452 167.383 244.329 166.906 244.329 166.39C244.329 165.862 244.434 165.412 244.644 165.04C244.86 164.662 245.151 164.353 245.517 164.113C245.889 163.873 246.318 163.69 246.804 163.564C247.296 163.444 247.839 163.339 248.433 163.249C249.033 163.153 249.618 163.072 250.188 163.006C250.764 162.934 251.268 162.865 251.7 162.799L251.232 163.087C251.25 162.127 251.064 161.416 250.674 160.954C250.284 160.492 249.606 160.261 248.64 160.261C247.974 160.261 247.41 160.411 246.948 160.711C246.492 161.011 246.171 161.485 245.985 162.133L244.698 161.755C244.92 160.885 245.367 160.21 246.039 159.73C246.711 159.25 247.584 159.01 248.658 159.01C249.546 159.01 250.299 159.178 250.917 159.514C251.541 159.844 251.982 160.324 252.24 160.954C252.36 161.236 252.438 161.551 252.474 161.899C252.51 162.247 252.528 162.601 252.528 162.961V169H251.349V166.561L251.691 166.705C251.361 167.539 250.848 168.175 250.152 168.613C249.456 169.051 248.622 169.27 247.65 169.27ZM247.803 168.127C248.421 168.127 248.961 168.016 249.423 167.794C249.885 167.572 250.257 167.269 250.539 166.885C250.821 166.495 251.004 166.057 251.088 165.571C251.16 165.259 251.199 164.917 251.205 164.545C251.211 164.167 251.214 163.885 251.214 163.699L251.718 163.96C251.268 164.02 250.779 164.08 250.251 164.14C249.729 164.2 249.213 164.269 248.703 164.347C248.199 164.425 247.743 164.518 247.335 164.626C247.059 164.704 246.792 164.815 246.534 164.959C246.276 165.097 246.063 165.283 245.895 165.517C245.733 165.751 245.652 166.042 245.652 166.39C245.652 166.672 245.721 166.945 245.859 167.209C246.003 167.473 246.231 167.692 246.543 167.866C246.861 168.04 247.281 168.127 247.803 168.127ZM261.891 169V164.041C261.891 163.501 261.84 163.006 261.738 162.556C261.636 162.1 261.471 161.704 261.243 161.368C261.021 161.026 260.73 160.762 260.37 160.576C260.016 160.39 259.584 160.297 259.074 160.297C258.606 160.297 258.192 160.378 257.832 160.54C257.478 160.702 257.178 160.936 256.932 161.242C256.692 161.542 256.509 161.908 256.383 162.34C256.257 162.772 256.194 163.264 256.194 163.816L255.258 163.609C255.258 162.613 255.432 161.776 255.78 161.098C256.128 160.42 256.608 159.907 257.22 159.559C257.832 159.211 258.534 159.037 259.326 159.037C259.908 159.037 260.415 159.127 260.847 159.307C261.285 159.487 261.654 159.73 261.954 160.036C262.26 160.342 262.506 160.693 262.692 161.089C262.878 161.479 263.013 161.896 263.097 162.34C263.181 162.778 263.223 163.216 263.223 163.654V169H261.891ZM254.862 169V159.28H256.059V161.674H256.194V169H254.862ZM266.593 173.32L268.474 168.217L268.501 169.729L264.244 159.28H265.648L269.14 168.019H268.564L271.786 159.28H273.136L267.916 173.32H266.593ZM282.668 169.27C281.774 169.27 281.018 169.045 280.4 168.595C279.782 168.139 279.314 167.524 278.996 166.75C278.678 165.97 278.519 165.097 278.519 164.131C278.519 163.147 278.678 162.271 278.996 161.503C279.32 160.729 279.794 160.12 280.418 159.676C281.042 159.232 281.81 159.01 282.722 159.01C283.61 159.01 284.372 159.235 285.008 159.685C285.644 160.135 286.13 160.747 286.466 161.521C286.808 162.295 286.979 163.165 286.979 164.131C286.979 165.103 286.808 165.976 286.466 166.75C286.124 167.524 285.632 168.139 284.99 168.595C284.348 169.045 283.574 169.27 282.668 169.27ZM278.294 173.32V159.28H279.482V166.597H279.626V173.32H278.294ZM282.533 168.037C283.211 168.037 283.775 167.866 284.225 167.524C284.675 167.182 285.011 166.717 285.233 166.129C285.461 165.535 285.575 164.869 285.575 164.131C285.575 163.399 285.464 162.739 285.242 162.151C285.02 161.563 284.681 161.098 284.225 160.756C283.775 160.414 283.202 160.243 282.506 160.243C281.828 160.243 281.264 160.408 280.814 160.738C280.37 161.068 280.037 161.527 279.815 162.115C279.593 162.697 279.482 163.369 279.482 164.131C279.482 164.881 279.593 165.553 279.815 166.147C280.037 166.735 280.373 167.197 280.823 167.533C281.273 167.869 281.843 168.037 282.533 168.037ZM291.736 169.27C291.004 169.27 290.389 169.138 289.891 168.874C289.399 168.61 289.03 168.259 288.784 167.821C288.538 167.383 288.415 166.906 288.415 166.39C288.415 165.862 288.52 165.412 288.73 165.04C288.946 164.662 289.237 164.353 289.603 164.113C289.975 163.873 290.404 163.69 290.89 163.564C291.382 163.444 291.925 163.339 292.519 163.249C293.119 163.153 293.704 163.072 294.274 163.006C294.85 162.934 295.354 162.865 295.786 162.799L295.318 163.087C295.336 162.127 295.15 161.416 294.76 160.954C294.37 160.492 293.692 160.261 292.726 160.261C292.06 160.261 291.496 160.411 291.034 160.711C290.578 161.011 290.257 161.485 290.071 162.133L288.784 161.755C289.006 160.885 289.453 160.21 290.125 159.73C290.797 159.25 291.67 159.01 292.744 159.01C293.632 159.01 294.385 159.178 295.003 159.514C295.627 159.844 296.068 160.324 296.326 160.954C296.446 161.236 296.524 161.551 296.56 161.899C296.596 162.247 296.614 162.601 296.614 162.961V169H295.435V166.561L295.777 166.705C295.447 167.539 294.934 168.175 294.238 168.613C293.542 169.051 292.708 169.27 291.736 169.27ZM291.889 168.127C292.507 168.127 293.047 168.016 293.509 167.794C293.971 167.572 294.343 167.269 294.625 166.885C294.907 166.495 295.09 166.057 295.174 165.571C295.246 165.259 295.285 164.917 295.291 164.545C295.297 164.167 295.3 163.885 295.3 163.699L295.804 163.96C295.354 164.02 294.865 164.08 294.337 164.14C293.815 164.2 293.299 164.269 292.789 164.347C292.285 164.425 291.829 164.518 291.421 164.626C291.145 164.704 290.878 164.815 290.62 164.959C290.362 165.097 290.149 165.283 289.981 165.517C289.819 165.751 289.738 166.042 289.738 166.39C289.738 166.672 289.807 166.945 289.945 167.209C290.089 167.473 290.317 167.692 290.629 167.866C290.947 168.04 291.367 168.127 291.889 168.127ZM302.818 173.59C302.32 173.59 301.828 173.515 301.342 173.365C300.862 173.221 300.418 172.99 300.01 172.672C299.602 172.36 299.26 171.952 298.984 171.448L300.181 170.782C300.451 171.322 300.829 171.709 301.315 171.943C301.807 172.183 302.308 172.303 302.818 172.303C303.52 172.303 304.087 172.171 304.519 171.907C304.957 171.649 305.275 171.265 305.473 170.755C305.671 170.245 305.767 169.609 305.761 168.847V166.255H305.914V159.28H307.093V168.865C307.093 169.141 307.084 169.405 307.066 169.657C307.054 169.915 307.027 170.167 306.985 170.413C306.871 171.139 306.634 171.736 306.274 172.204C305.92 172.672 305.452 173.02 304.87 173.248C304.294 173.476 303.61 173.59 302.818 173.59ZM302.728 169.27C301.822 169.27 301.048 169.045 300.406 168.595C299.764 168.139 299.272 167.524 298.93 166.75C298.588 165.976 298.417 165.103 298.417 164.131C298.417 163.165 298.585 162.295 298.921 161.521C299.263 160.747 299.752 160.135 300.388 159.685C301.024 159.235 301.786 159.01 302.674 159.01C303.586 159.01 304.354 159.232 304.978 159.676C305.602 160.12 306.073 160.729 306.391 161.503C306.715 162.271 306.877 163.147 306.877 164.131C306.877 165.097 306.718 165.97 306.4 166.75C306.082 167.524 305.614 168.139 304.996 168.595C304.378 169.045 303.622 169.27 302.728 169.27ZM302.863 168.037C303.553 168.037 304.123 167.869 304.573 167.533C305.023 167.197 305.359 166.735 305.581 166.147C305.803 165.553 305.914 164.881 305.914 164.131C305.914 163.369 305.803 162.697 305.581 162.115C305.359 161.527 305.023 161.068 304.573 160.738C304.129 160.408 303.568 160.243 302.89 160.243C302.194 160.243 301.618 160.414 301.162 160.756C300.706 161.098 300.367 161.563 300.145 162.151C299.929 162.739 299.821 163.399 299.821 164.131C299.821 164.869 299.932 165.535 300.154 166.129C300.382 166.717 300.721 167.182 301.171 167.524C301.621 167.866 302.185 168.037 302.863 168.037ZM313.723 169.27C312.775 169.27 311.953 169.06 311.257 168.64C310.567 168.22 310.03 167.629 309.646 166.867C309.262 166.105 309.07 165.211 309.07 164.185C309.07 163.123 309.259 162.205 309.637 161.431C310.015 160.657 310.546 160.06 311.23 159.64C311.92 159.22 312.733 159.01 313.669 159.01C314.629 159.01 315.448 159.232 316.126 159.676C316.804 160.114 317.317 160.744 317.665 161.566C318.013 162.388 318.172 163.369 318.142 164.509H316.792V164.041C316.768 162.781 316.495 161.83 315.973 161.188C315.457 160.546 314.701 160.225 313.705 160.225C312.661 160.225 311.86 160.564 311.302 161.242C310.75 161.92 310.474 162.886 310.474 164.14C310.474 165.364 310.75 166.315 311.302 166.993C311.86 167.665 312.649 168.001 313.669 168.001C314.365 168.001 314.971 167.842 315.487 167.524C316.009 167.2 316.42 166.735 316.72 166.129L317.953 166.606C317.569 167.452 317.002 168.109 316.252 168.577C315.508 169.039 314.665 169.27 313.723 169.27ZM310.006 164.509V163.402H317.431V164.509H310.006ZM320.039 169V167.461H321.578V169H320.039Z" fill="#18191F"/>
<g clip-path="url(#clip3_12354_544)">
<path d="M85.26 223V210.04H87.429V216.052L92.604 210.04H95.268L89.697 216.394L95.646 223H92.892L87.429 216.952V223H85.26ZM96.9143 223V213.28H98.8313V215.647L98.5973 215.341C98.7173 215.017 98.8763 214.723 99.0743 214.459C99.2783 214.189 99.5213 213.967 99.8033 213.793C100.043 213.631 100.307 213.505 100.595 213.415C100.889 213.319 101.189 213.262 101.495 213.244C101.801 213.22 102.098 213.232 102.386 213.28V215.305C102.098 215.221 101.765 215.194 101.387 215.224C101.015 215.254 100.679 215.359 100.379 215.539C100.079 215.701 99.8333 215.908 99.6413 216.16C99.4553 216.412 99.3173 216.7 99.2273 217.024C99.1373 217.342 99.0923 217.687 99.0923 218.059V223H96.9143ZM104.284 211.804V209.815H106.453V211.804H104.284ZM104.284 223V213.28H106.453V223H104.284ZM112.902 223.27C111.702 223.27 110.727 223 109.977 222.46C109.227 221.92 108.771 221.161 108.609 220.183L110.823 219.841C110.937 220.321 111.189 220.699 111.579 220.975C111.969 221.251 112.461 221.389 113.055 221.389C113.577 221.389 113.979 221.287 114.261 221.083C114.549 220.873 114.693 220.588 114.693 220.228C114.693 220.006 114.639 219.829 114.531 219.697C114.429 219.559 114.201 219.427 113.847 219.301C113.493 219.175 112.95 219.016 112.218 218.824C111.402 218.608 110.754 218.377 110.274 218.131C109.794 217.879 109.449 217.582 109.239 217.24C109.029 216.898 108.924 216.484 108.924 215.998C108.924 215.392 109.083 214.864 109.401 214.414C109.719 213.964 110.163 213.619 110.733 213.379C111.303 213.133 111.975 213.01 112.749 213.01C113.505 213.01 114.174 213.127 114.756 213.361C115.344 213.595 115.818 213.928 116.178 214.36C116.538 214.792 116.76 215.299 116.844 215.881L114.63 216.277C114.576 215.863 114.387 215.536 114.063 215.296C113.745 215.056 113.319 214.921 112.785 214.891C112.275 214.861 111.864 214.939 111.552 215.125C111.24 215.305 111.084 215.56 111.084 215.89C111.084 216.076 111.147 216.235 111.273 216.367C111.399 216.499 111.651 216.631 112.029 216.763C112.413 216.895 112.983 217.057 113.739 217.249C114.513 217.447 115.131 217.675 115.593 217.933C116.061 218.185 116.397 218.488 116.601 218.842C116.811 219.196 116.916 219.625 116.916 220.129C116.916 221.107 116.559 221.875 115.845 222.433C115.137 222.991 114.156 223.27 112.902 223.27ZM124.584 223C123.942 223.12 123.312 223.171 122.694 223.153C122.082 223.141 121.533 223.03 121.047 222.82C120.561 222.604 120.192 222.265 119.94 221.803C119.718 221.383 119.601 220.954 119.589 220.516C119.577 220.078 119.571 219.583 119.571 219.031V210.58H121.731V218.905C121.731 219.295 121.734 219.637 121.74 219.931C121.752 220.225 121.815 220.465 121.929 220.651C122.145 221.011 122.49 221.212 122.964 221.254C123.438 221.296 123.978 221.272 124.584 221.182V223ZM117.807 214.981V213.28H124.584V214.981H117.807ZM126.854 211.804V209.815H129.023V211.804H126.854ZM126.854 223V213.28H129.023V223H126.854ZM138.442 223V218.32C138.442 218.014 138.421 217.675 138.379 217.303C138.337 216.931 138.238 216.574 138.082 216.232C137.932 215.884 137.704 215.599 137.398 215.377C137.098 215.155 136.69 215.044 136.174 215.044C135.898 215.044 135.625 215.089 135.355 215.179C135.085 215.269 134.839 215.425 134.617 215.647C134.401 215.863 134.227 216.163 134.095 216.547C133.963 216.925 133.897 217.411 133.897 218.005L132.61 217.456C132.61 216.628 132.769 215.878 133.087 215.206C133.411 214.534 133.885 214 134.509 213.604C135.133 213.202 135.901 213.001 136.813 213.001C137.533 213.001 138.127 213.121 138.595 213.361C139.063 213.601 139.435 213.907 139.711 214.279C139.987 214.651 140.191 215.047 140.323 215.467C140.455 215.887 140.539 216.286 140.575 216.664C140.617 217.036 140.638 217.339 140.638 217.573V223H138.442ZM131.701 223V213.28H133.636V216.295H133.897V223H131.701ZM149.326 223L145.537 210.04H147.814L150.397 219.4L152.971 210.058L155.248 210.04L157.831 219.4L160.405 210.04H162.682L158.902 223H156.76L154.105 213.784L151.468 223H149.326ZM166.06 223.27C165.358 223.27 164.764 223.138 164.278 222.874C163.792 222.604 163.423 222.247 163.171 221.803C162.925 221.359 162.802 220.87 162.802 220.336C162.802 219.868 162.88 219.448 163.036 219.076C163.192 218.698 163.432 218.374 163.756 218.104C164.08 217.828 164.5 217.603 165.016 217.429C165.406 217.303 165.862 217.189 166.384 217.087C166.912 216.985 167.482 216.892 168.094 216.808C168.712 216.718 169.357 216.622 170.029 216.52L169.255 216.961C169.261 216.289 169.111 215.794 168.805 215.476C168.499 215.158 167.983 214.999 167.257 214.999C166.819 214.999 166.396 215.101 165.988 215.305C165.58 215.509 165.295 215.86 165.133 216.358L163.153 215.737C163.393 214.915 163.849 214.255 164.521 213.757C165.199 213.259 166.111 213.01 167.257 213.01C168.121 213.01 168.88 213.151 169.534 213.433C170.194 213.715 170.683 214.177 171.001 214.819C171.175 215.161 171.28 215.512 171.316 215.872C171.352 216.226 171.37 216.613 171.37 217.033V223H169.471V220.894L169.786 221.236C169.348 221.938 168.835 222.454 168.247 222.784C167.665 223.108 166.936 223.27 166.06 223.27ZM166.492 221.542C166.984 221.542 167.404 221.455 167.752 221.281C168.1 221.107 168.376 220.894 168.58 220.642C168.79 220.39 168.931 220.153 169.003 219.931C169.117 219.655 169.18 219.34 169.192 218.986C169.21 218.626 169.219 218.335 169.219 218.113L169.885 218.311C169.231 218.413 168.67 218.503 168.202 218.581C167.734 218.659 167.332 218.734 166.996 218.806C166.66 218.872 166.363 218.947 166.105 219.031C165.853 219.121 165.64 219.226 165.466 219.346C165.292 219.466 165.157 219.604 165.061 219.76C164.971 219.916 164.926 220.099 164.926 220.309C164.926 220.549 164.986 220.762 165.106 220.948C165.226 221.128 165.4 221.272 165.628 221.38C165.862 221.488 166.15 221.542 166.492 221.542ZM179.41 223C178.768 223.12 178.138 223.171 177.52 223.153C176.908 223.141 176.359 223.03 175.873 222.82C175.387 222.604 175.018 222.265 174.766 221.803C174.544 221.383 174.427 220.954 174.415 220.516C174.403 220.078 174.397 219.583 174.397 219.031V210.58H176.557V218.905C176.557 219.295 176.56 219.637 176.566 219.931C176.578 220.225 176.641 220.465 176.755 220.651C176.971 221.011 177.316 221.212 177.79 221.254C178.264 221.296 178.804 221.272 179.41 221.182V223ZM172.633 214.981V213.28H179.41V214.981H172.633ZM185.253 223.27C184.053 223.27 183.078 223 182.328 222.46C181.578 221.92 181.122 221.161 180.96 220.183L183.174 219.841C183.288 220.321 183.54 220.699 183.93 220.975C184.32 221.251 184.812 221.389 185.406 221.389C185.928 221.389 186.33 221.287 186.612 221.083C186.9 220.873 187.044 220.588 187.044 220.228C187.044 220.006 186.99 219.829 186.882 219.697C186.78 219.559 186.552 219.427 186.198 219.301C185.844 219.175 185.301 219.016 184.569 218.824C183.753 218.608 183.105 218.377 182.625 218.131C182.145 217.879 181.8 217.582 181.59 217.24C181.38 216.898 181.275 216.484 181.275 215.998C181.275 215.392 181.434 214.864 181.752 214.414C182.07 213.964 182.514 213.619 183.084 213.379C183.654 213.133 184.326 213.01 185.1 213.01C185.856 213.01 186.525 213.127 187.107 213.361C187.695 213.595 188.169 213.928 188.529 214.36C188.889 214.792 189.111 215.299 189.195 215.881L186.981 216.277C186.927 215.863 186.738 215.536 186.414 215.296C186.096 215.056 185.67 214.921 185.136 214.891C184.626 214.861 184.215 214.939 183.903 215.125C183.591 215.305 183.435 215.56 183.435 215.89C183.435 216.076 183.498 216.235 183.624 216.367C183.75 216.499 184.002 216.631 184.38 216.763C184.764 216.895 185.334 217.057 186.09 217.249C186.864 217.447 187.482 217.675 187.944 217.933C188.412 218.185 188.748 218.488 188.952 218.842C189.162 219.196 189.267 219.625 189.267 220.129C189.267 221.107 188.91 221.875 188.196 222.433C187.488 222.991 186.507 223.27 185.253 223.27ZM195.532 223.27C194.56 223.27 193.711 223.051 192.985 222.613C192.259 222.175 191.695 221.572 191.293 220.804C190.897 220.03 190.699 219.142 190.699 218.14C190.699 217.12 190.903 216.226 191.311 215.458C191.719 214.69 192.286 214.09 193.012 213.658C193.738 213.226 194.578 213.01 195.532 213.01C196.51 213.01 197.362 213.229 198.088 213.667C198.814 214.105 199.378 214.711 199.78 215.485C200.182 216.253 200.383 217.138 200.383 218.14C200.383 219.148 200.179 220.039 199.771 220.813C199.369 221.581 198.805 222.184 198.079 222.622C197.353 223.054 196.504 223.27 195.532 223.27ZM195.532 221.236C196.396 221.236 197.038 220.948 197.458 220.372C197.878 219.796 198.088 219.052 198.088 218.14C198.088 217.198 197.875 216.448 197.449 215.89C197.023 215.326 196.384 215.044 195.532 215.044C194.95 215.044 194.47 215.176 194.092 215.44C193.72 215.698 193.444 216.061 193.264 216.529C193.084 216.991 192.994 217.528 192.994 218.14C192.994 219.082 193.207 219.835 193.633 220.399C194.065 220.957 194.698 221.236 195.532 221.236ZM209.088 223V218.32C209.088 218.014 209.067 217.675 209.025 217.303C208.983 216.931 208.884 216.574 208.728 216.232C208.578 215.884 208.35 215.599 208.044 215.377C207.744 215.155 207.336 215.044 206.82 215.044C206.544 215.044 206.271 215.089 206.001 215.179C205.731 215.269 205.485 215.425 205.263 215.647C205.047 215.863 204.873 216.163 204.741 216.547C204.609 216.925 204.543 217.411 204.543 218.005L203.256 217.456C203.256 216.628 203.415 215.878 203.733 215.206C204.057 214.534 204.531 214 205.155 213.604C205.779 213.202 206.547 213.001 207.459 213.001C208.179 213.001 208.773 213.121 209.241 213.361C209.709 213.601 210.081 213.907 210.357 214.279C210.633 214.651 210.837 215.047 210.969 215.467C211.101 215.887 211.185 216.286 211.221 216.664C211.263 217.036 211.284 217.339 211.284 217.573V223H209.088ZM202.347 223V213.28H204.282V216.295H204.543V223H202.347Z" fill="#18191F"/>
<path d="M89.124 247.21C88.1207 247.21 87.269 246.988 86.569 246.545C85.869 246.102 85.3347 245.486 84.966 244.697C84.602 243.908 84.42 242.996 84.42 241.96C84.42 240.924 84.602 240.012 84.966 239.223C85.3347 238.434 85.869 237.818 86.569 237.375C87.269 236.932 88.1207 236.71 89.124 236.71C90.2907 236.71 91.2497 237.006 92.001 237.599C92.757 238.192 93.2773 238.99 93.562 239.993L92.295 240.329C92.0897 239.578 91.7233 238.985 91.196 238.551C90.6687 238.117 89.978 237.9 89.124 237.9C88.3727 237.9 87.7473 238.07 87.248 238.411C86.7487 238.752 86.373 239.228 86.121 239.839C85.869 240.446 85.7407 241.153 85.736 241.96C85.7313 242.763 85.855 243.47 86.107 244.081C86.359 244.688 86.737 245.164 87.241 245.509C87.745 245.85 88.3727 246.02 89.124 246.02C89.978 246.02 90.6687 245.803 91.196 245.369C91.7233 244.93 92.0897 244.338 92.295 243.591L93.562 243.927C93.2773 244.926 92.757 245.724 92.001 246.321C91.2497 246.914 90.2907 247.21 89.124 247.21ZM98.3172 247.21C97.5659 247.21 96.9172 247.04 96.3712 246.699C95.8299 246.358 95.4122 245.887 95.1182 245.285C94.8242 244.683 94.6772 243.992 94.6772 243.213C94.6772 242.42 94.8265 241.724 95.1252 241.127C95.4239 240.53 95.8462 240.065 96.3922 239.734C96.9382 239.398 97.5799 239.23 98.3172 239.23C99.0732 239.23 99.7242 239.4 100.27 239.741C100.816 240.077 101.234 240.546 101.523 241.148C101.817 241.745 101.964 242.434 101.964 243.213C101.964 244.002 101.817 244.697 101.523 245.299C101.229 245.896 100.809 246.365 100.263 246.706C99.7172 247.042 99.0685 247.21 98.3172 247.21ZM98.3172 246.027C99.1012 246.027 99.6845 245.766 100.067 245.243C100.45 244.72 100.641 244.044 100.641 243.213C100.641 242.359 100.448 241.68 100.06 241.176C99.6729 240.667 99.0919 240.413 98.3172 240.413C97.7899 240.413 97.3559 240.532 97.0152 240.77C96.6745 241.008 96.4202 241.337 96.2522 241.757C96.0842 242.177 96.0002 242.662 96.0002 243.213C96.0002 244.062 96.1962 244.744 96.5882 245.257C96.9802 245.77 97.5565 246.027 98.3172 246.027ZM103.365 243.101V242.072H107.565V243.101H103.365ZM109.384 247V236.92H115.264V238.166H110.63V241.337H114.424V242.583H110.63V247H109.384ZM119.536 247.21C118.785 247.21 118.136 247.04 117.59 246.699C117.049 246.358 116.631 245.887 116.337 245.285C116.043 244.683 115.896 243.992 115.896 243.213C115.896 242.42 116.045 241.724 116.344 241.127C116.643 240.53 117.065 240.065 117.611 239.734C118.157 239.398 118.799 239.23 119.536 239.23C120.292 239.23 120.943 239.4 121.489 239.741C122.035 240.077 122.453 240.546 122.742 241.148C123.036 241.745 123.183 242.434 123.183 243.213C123.183 244.002 123.036 244.697 122.742 245.299C122.448 245.896 122.028 246.365 121.482 246.706C120.936 247.042 120.287 247.21 119.536 247.21ZM119.536 246.027C120.32 246.027 120.903 245.766 121.286 245.243C121.669 244.72 121.86 244.044 121.86 243.213C121.86 242.359 121.666 241.68 121.279 241.176C120.892 240.667 120.311 240.413 119.536 240.413C119.009 240.413 118.575 240.532 118.234 240.77C117.893 241.008 117.639 241.337 117.471 241.757C117.303 242.177 117.219 242.662 117.219 243.213C117.219 244.062 117.415 244.744 117.807 245.257C118.199 245.77 118.775 246.027 119.536 246.027ZM127.594 247.196C127.109 247.196 126.691 247.119 126.341 246.965C125.996 246.811 125.709 246.606 125.48 246.349C125.251 246.092 125.072 245.808 124.941 245.495C124.81 245.182 124.717 244.863 124.661 244.536C124.61 244.209 124.584 243.904 124.584 243.619V239.44H125.844V243.227C125.844 243.582 125.877 243.925 125.942 244.256C126.007 244.587 126.117 244.886 126.271 245.152C126.43 245.418 126.64 245.628 126.901 245.782C127.167 245.936 127.498 246.013 127.895 246.013C128.208 246.013 128.492 245.959 128.749 245.852C129.006 245.745 129.225 245.586 129.407 245.376C129.589 245.161 129.729 244.891 129.827 244.564C129.925 244.237 129.974 243.857 129.974 243.423L130.793 243.675C130.793 244.403 130.66 245.031 130.394 245.558C130.133 246.085 129.762 246.491 129.281 246.776C128.805 247.056 128.243 247.196 127.594 247.196ZM130.114 247V244.977H129.974V239.44H131.227V247H130.114ZM138.57 247V243.213C138.57 242.854 138.537 242.508 138.472 242.177C138.411 241.846 138.302 241.549 138.143 241.288C137.989 241.022 137.779 240.812 137.513 240.658C137.252 240.504 136.92 240.427 136.519 240.427C136.206 240.427 135.922 240.481 135.665 240.588C135.413 240.691 135.196 240.849 135.014 241.064C134.832 241.279 134.69 241.549 134.587 241.876C134.489 242.198 134.44 242.578 134.44 243.017L133.621 242.765C133.621 242.032 133.752 241.405 134.013 240.882C134.279 240.355 134.65 239.951 135.126 239.671C135.607 239.386 136.171 239.244 136.82 239.244C137.31 239.244 137.728 239.321 138.073 239.475C138.418 239.629 138.705 239.834 138.934 240.091C139.163 240.343 139.342 240.628 139.473 240.945C139.604 241.258 139.695 241.577 139.746 241.904C139.802 242.226 139.83 242.532 139.83 242.821V247H138.57ZM133.18 247V239.44H134.3V241.463H134.44V247H133.18ZM144.55 247.21C143.845 247.21 143.241 247.035 142.737 246.685C142.233 246.33 141.843 245.852 141.568 245.25C141.297 244.648 141.162 243.969 141.162 243.213C141.162 242.457 141.297 241.778 141.568 241.176C141.843 240.574 142.233 240.1 142.737 239.755C143.241 239.405 143.843 239.23 144.543 239.23C145.257 239.23 145.856 239.403 146.342 239.748C146.827 240.093 147.193 240.567 147.441 241.169C147.693 241.771 147.819 242.452 147.819 243.213C147.819 243.964 147.693 244.643 147.441 245.25C147.193 245.852 146.827 246.33 146.342 246.685C145.856 247.035 145.259 247.21 144.55 247.21ZM144.704 246.069C145.212 246.069 145.63 245.948 145.957 245.705C146.283 245.458 146.524 245.119 146.678 244.69C146.836 244.256 146.916 243.764 146.916 243.213C146.916 242.653 146.836 242.161 146.678 241.736C146.524 241.307 146.286 240.973 145.964 240.735C145.642 240.492 145.233 240.371 144.739 240.371C144.225 240.371 143.801 240.497 143.465 240.749C143.133 241.001 142.886 241.342 142.723 241.771C142.564 242.2 142.485 242.681 142.485 243.213C142.485 243.75 142.566 244.235 142.73 244.669C142.893 245.098 143.138 245.439 143.465 245.691C143.796 245.943 144.209 246.069 144.704 246.069ZM146.916 247V241.435H146.776V236.92H148.029V247H146.916ZM153.266 247.21C152.524 247.21 151.875 247.047 151.32 246.72C150.769 246.389 150.34 245.929 150.032 245.341C149.724 244.748 149.57 244.058 149.57 243.269C149.57 242.443 149.721 241.729 150.025 241.127C150.328 240.52 150.75 240.054 151.292 239.727C151.838 239.396 152.477 239.23 153.21 239.23C153.97 239.23 154.617 239.405 155.149 239.755C155.685 240.105 156.087 240.604 156.353 241.253C156.623 241.902 156.74 242.674 156.703 243.57H155.443V243.122C155.429 242.193 155.24 241.5 154.876 241.043C154.512 240.581 153.97 240.35 153.252 240.35C152.482 240.35 151.896 240.597 151.495 241.092C151.093 241.587 150.893 242.296 150.893 243.22C150.893 244.111 151.093 244.802 151.495 245.292C151.896 245.782 152.468 246.027 153.21 246.027C153.709 246.027 154.143 245.913 154.512 245.684C154.88 245.455 155.17 245.126 155.38 244.697L156.577 245.11C156.283 245.777 155.839 246.295 155.247 246.664C154.659 247.028 153.998 247.21 153.266 247.21ZM150.473 243.57V242.569H156.059V243.57H150.473ZM158.261 247V239.44H159.374V241.267L159.192 241.029C159.281 240.796 159.395 240.581 159.535 240.385C159.68 240.189 159.841 240.028 160.018 239.902C160.214 239.743 160.436 239.622 160.683 239.538C160.931 239.454 161.183 239.405 161.439 239.391C161.696 239.372 161.936 239.389 162.16 239.44V240.609C161.899 240.539 161.612 240.52 161.299 240.553C160.987 240.586 160.697 240.7 160.431 240.896C160.189 241.069 160 241.279 159.864 241.526C159.734 241.773 159.643 242.042 159.591 242.331C159.54 242.616 159.514 242.907 159.514 243.206V247H158.261ZM162.223 248.568L162.3 247.987C162.496 248.001 162.643 247.964 162.741 247.875C162.839 247.786 162.902 247.665 162.93 247.511C162.958 247.357 162.962 247.187 162.944 247H162.223V245.418H163.595V247.21C163.595 247.7 163.473 248.069 163.231 248.316C162.993 248.563 162.657 248.647 162.223 248.568ZM169.062 247V236.92H172.989C173.591 236.92 174.104 237.044 174.529 237.291C174.958 237.538 175.285 237.865 175.509 238.271C175.738 238.672 175.852 239.106 175.852 239.573C175.852 240.119 175.712 240.597 175.432 241.008C175.152 241.419 174.774 241.701 174.298 241.855L174.284 241.512C174.933 241.685 175.437 242.002 175.796 242.464C176.155 242.926 176.335 243.477 176.335 244.116C176.335 244.704 176.214 245.213 175.971 245.642C175.733 246.071 175.388 246.405 174.935 246.643C174.487 246.881 173.955 247 173.339 247H169.062ZM170.322 245.81H173.101C173.474 245.81 173.808 245.742 174.102 245.607C174.396 245.467 174.627 245.271 174.795 245.019C174.968 244.767 175.054 244.464 175.054 244.109C175.054 243.768 174.977 243.463 174.823 243.192C174.674 242.921 174.461 242.707 174.186 242.548C173.915 242.385 173.6 242.303 173.241 242.303H170.322V245.81ZM170.322 241.127H172.975C173.274 241.127 173.542 241.064 173.78 240.938C174.023 240.807 174.214 240.625 174.354 240.392C174.499 240.159 174.571 239.886 174.571 239.573C174.571 239.139 174.424 238.784 174.13 238.509C173.836 238.234 173.451 238.096 172.975 238.096H170.322V241.127ZM180.95 247.21C180.199 247.21 179.55 247.04 179.004 246.699C178.463 246.358 178.045 245.887 177.751 245.285C177.457 244.683 177.31 243.992 177.31 243.213C177.31 242.42 177.459 241.724 177.758 241.127C178.057 240.53 178.479 240.065 179.025 239.734C179.571 239.398 180.213 239.23 180.95 239.23C181.706 239.23 182.357 239.4 182.903 239.741C183.449 240.077 183.867 240.546 184.156 241.148C184.45 241.745 184.597 242.434 184.597 243.213C184.597 244.002 184.45 244.697 184.156 245.299C183.862 245.896 183.442 246.365 182.896 246.706C182.35 247.042 181.701 247.21 180.95 247.21ZM180.95 246.027C181.734 246.027 182.317 245.766 182.7 245.243C183.083 244.72 183.274 244.044 183.274 243.213C183.274 242.359 183.08 241.68 182.693 241.176C182.306 240.667 181.725 240.413 180.95 240.413C180.423 240.413 179.989 240.532 179.648 240.77C179.307 241.008 179.053 241.337 178.885 241.757C178.717 242.177 178.633 242.662 178.633 243.213C178.633 244.062 178.829 244.744 179.221 245.257C179.613 245.77 180.189 246.027 180.95 246.027ZM189.358 247.21C188.607 247.21 187.958 247.04 187.412 246.699C186.871 246.358 186.453 245.887 186.159 245.285C185.865 244.683 185.718 243.992 185.718 243.213C185.718 242.42 185.868 241.724 186.166 241.127C186.465 240.53 186.887 240.065 187.433 239.734C187.979 239.398 188.621 239.23 189.358 239.23C190.114 239.23 190.765 239.4 191.311 239.741C191.857 240.077 192.275 240.546 192.564 241.148C192.858 241.745 193.005 242.434 193.005 243.213C193.005 244.002 192.858 244.697 192.564 245.299C192.27 245.896 191.85 246.365 191.304 246.706C190.758 247.042 190.11 247.21 189.358 247.21ZM189.358 246.027C190.142 246.027 190.726 245.766 191.108 245.243C191.491 244.72 191.682 244.044 191.682 243.213C191.682 242.359 191.489 241.68 191.101 241.176C190.714 240.667 190.133 240.413 189.358 240.413C188.831 240.413 188.397 240.532 188.056 240.77C187.716 241.008 187.461 241.337 187.293 241.757C187.125 242.177 187.041 242.662 187.041 243.213C187.041 244.062 187.237 244.744 187.629 245.257C188.021 245.77 188.598 246.027 189.358 246.027ZM194.539 247L194.546 236.92H195.806V243.08L198.977 239.44H200.594L197.255 243.22L200.986 247H199.243L195.806 243.36V247H194.539ZM201.683 247V236.92H202.817L206.625 244.949L210.412 236.92H211.56V246.993H210.377V239.657L206.954 247H206.289L202.866 239.657V247H201.683ZM214.573 250.36L216.036 246.384L216.057 247.56L212.753 239.44H214.062L216.652 245.971H216.204L218.633 239.44H219.9L215.784 250.36H214.573ZM224.633 247.21C223.919 247.21 223.275 247.089 222.701 246.846C222.132 246.603 221.661 246.258 221.287 245.81C220.919 245.357 220.678 244.823 220.566 244.207L221.854 244.004C222.018 244.639 222.356 245.136 222.869 245.495C223.387 245.85 223.996 246.027 224.696 246.027C225.149 246.027 225.557 245.957 225.921 245.817C226.29 245.672 226.582 245.467 226.796 245.201C227.011 244.935 227.118 244.62 227.118 244.256C227.118 244.032 227.079 243.841 226.999 243.682C226.925 243.519 226.82 243.381 226.684 243.269C226.554 243.152 226.404 243.054 226.236 242.975C226.068 242.896 225.893 242.83 225.711 242.779L223.142 242.016C222.862 241.932 222.592 241.827 222.33 241.701C222.069 241.57 221.836 241.409 221.63 241.218C221.425 241.022 221.262 240.789 221.14 240.518C221.019 240.243 220.958 239.918 220.958 239.545C220.958 238.948 221.112 238.439 221.42 238.019C221.733 237.594 222.155 237.27 222.687 237.046C223.219 236.822 223.819 236.712 224.486 236.717C225.163 236.722 225.767 236.843 226.299 237.081C226.836 237.314 227.279 237.65 227.629 238.089C227.984 238.528 228.222 239.053 228.343 239.664L227.02 239.895C226.95 239.484 226.794 239.132 226.551 238.838C226.313 238.539 226.015 238.311 225.655 238.152C225.296 237.989 224.902 237.905 224.472 237.9C224.062 237.895 223.691 237.961 223.359 238.096C223.028 238.231 222.764 238.42 222.568 238.663C222.372 238.901 222.274 239.176 222.274 239.489C222.274 239.797 222.363 240.047 222.54 240.238C222.718 240.425 222.935 240.574 223.191 240.686C223.453 240.793 223.707 240.882 223.954 240.952L225.872 241.505C226.092 241.566 226.344 241.65 226.628 241.757C226.918 241.864 227.198 242.016 227.468 242.212C227.739 242.403 227.963 242.66 228.14 242.982C228.318 243.299 228.406 243.701 228.406 244.186C228.406 244.671 228.308 245.103 228.112 245.481C227.921 245.859 227.653 246.176 227.307 246.433C226.962 246.685 226.561 246.876 226.103 247.007C225.646 247.142 225.156 247.21 224.633 247.21ZM235.258 247V243.213C235.258 242.854 235.225 242.508 235.16 242.177C235.099 241.846 234.989 241.549 234.831 241.288C234.677 241.022 234.467 240.812 234.201 240.658C233.939 240.504 233.608 240.427 233.207 240.427C232.894 240.427 232.609 240.481 232.353 240.588C232.101 240.691 231.884 240.849 231.702 241.064C231.52 241.279 231.377 241.549 231.275 241.876C231.177 242.198 231.128 242.578 231.128 243.017L230.309 242.765C230.309 242.032 230.439 241.405 230.701 240.882C230.967 240.355 231.338 239.951 231.814 239.671C232.294 239.386 232.859 239.244 233.508 239.244C233.998 239.244 234.415 239.321 234.761 239.475C235.106 239.629 235.393 239.834 235.622 240.091C235.85 240.343 236.03 240.628 236.161 240.945C236.291 241.258 236.382 241.577 236.434 241.904C236.49 242.226 236.518 242.532 236.518 242.821V247H235.258ZM229.868 247V236.92H230.988V242.485H231.128V247H229.868ZM241.557 247.21C240.806 247.21 240.157 247.04 239.611 246.699C239.07 246.358 238.652 245.887 238.358 245.285C238.064 244.683 237.917 243.992 237.917 243.213C237.917 242.42 238.067 241.724 238.365 241.127C238.664 240.53 239.086 240.065 239.632 239.734C240.178 239.398 240.82 239.23 241.557 239.23C242.313 239.23 242.964 239.4 243.51 239.741C244.056 240.077 244.474 240.546 244.763 241.148C245.057 241.745 245.204 242.434 245.204 243.213C245.204 244.002 245.057 244.697 244.763 245.299C244.469 245.896 244.049 246.365 243.503 246.706C242.957 247.042 242.309 247.21 241.557 247.21ZM241.557 246.027C242.341 246.027 242.925 245.766 243.307 245.243C243.69 244.72 243.881 244.044 243.881 243.213C243.881 242.359 243.688 241.68 243.3 241.176C242.913 240.667 242.332 240.413 241.557 240.413C241.03 240.413 240.596 240.532 240.255 240.77C239.915 241.008 239.66 241.337 239.492 241.757C239.324 242.177 239.24 242.662 239.24 243.213C239.24 244.062 239.436 244.744 239.828 245.257C240.22 245.77 240.797 246.027 241.557 246.027ZM248.082 247L245.772 239.433L247.011 239.44L248.698 244.97L250.399 239.44H251.498L253.192 244.97L254.886 239.44H256.118L253.808 247H252.772L250.945 241.253L249.118 247H248.082Z" fill="#969BAB"/>
</g>
</g>
</g>
</g>
<defs>
<filter id="filter0_d_12354_544" x="0" y="0" width="390" height="316" filterUnits="userSpaceOnUse" color-interpolation-filters="sRGB">
<feFlood flood-opacity="0" result="BackgroundImageFix"/>
<feColorMatrix in="SourceAlpha" type="matrix" values="0 0 0 0 0 0 0 0 0 0 0 0 0 0 0 0 0 0 127 0" result="hardAlpha"/>
<feOffset dy="10"/>
<feGaussianBlur stdDeviation="10"/>
<feColorMatrix type="matrix" values="0 0 0 0 0.160784 0 0 0 0 0.160784 0 0 0 0 0.164706 0 0 0 0.07 0"/>
<feBlend mode="normal" in2="BackgroundImageFix" result="effect1_dropShadow_12354_544"/>
<feBlend mode="normal" in="SourceGraphic" in2="effect1_dropShadow_12354_544" result="shape"/>
</filter>
<clipPath id="clip0_12354_544">
<rect width="286" height="140" fill="white" transform="translate(52 114)"/>
</clipPath>
<clipPath id="clip1_12354_544">
<rect width="16" height="14" fill="white" transform="translate(52 114)"/>
</clipPath>
<clipPath id="clip2_12354_544">
<rect width="254" height="140" fill="white" transform="translate(84 114)"/>
</clipPath>
<clipPath id="clip3_12354_544">
<rect width="173" height="52" fill="white" transform="translate(84 202)"/>
</clipPath>
</defs>
</svg>
